<?xml version="1.0" encoding="UTF-8"?>
<svg id="Layer_2" data-name="Layer 2" xmlns="http://www.w3.org/2000/svg" xmlns:xlink="http://www.w3.org/1999/xlink" viewBox="0 0 298.77 349.69">
  <defs>
    <style>
      .cls-1 {
        fill: url(#linear-gradient-2);
      }

      .cls-2 {
        fill: url(#radial-gradient-7);
      }

      .cls-3 {
        fill: url(#radial-gradient-10);
      }

      .cls-4, .cls-5 {
        fill: #fff;
      }

      .cls-6 {
        fill: url(#linear-gradient-17);
      }

      .cls-7 {
        fill: url(#radial-gradient-28);
      }

      .cls-8 {
        fill: url(#linear-gradient-15);
      }

      .cls-9 {
        fill: url(#linear-gradient-18);
      }

      .cls-10 {
        fill: url(#radial-gradient-16);
      }

      .cls-11 {
        fill: url(#radial-gradient-20);
      }

      .cls-12 {
        fill: url(#linear-gradient-14);
      }

      .cls-13 {
        fill: url(#radial-gradient-21);
      }

      .cls-14 {
        fill: url(#radial-gradient-8);
      }

      .cls-15 {
        fill: url(#linear-gradient-20);
      }

      .cls-16 {
        fill: url(#linear-gradient-6);
      }

      .cls-17 {
        fill: url(#radial-gradient-5);
      }

      .cls-18 {
        fill: url(#radial-gradient-4);
      }

      .cls-5 {
        opacity: .5;
      }

      .cls-19 {
        fill: url(#linear-gradient-11);
      }

      .cls-20 {
        fill: url(#radial-gradient-25);
      }

      .cls-21 {
        fill: url(#radial-gradient-26);
      }

      .cls-22 {
        fill: url(#radial-gradient-22);
      }

      .cls-23 {
        fill: url(#radial-gradient-6);
      }

      .cls-24 {
        fill: url(#radial-gradient-19);
      }

      .cls-25 {
        fill: url(#radial-gradient-12);
      }

      .cls-26 {
        fill: url(#linear-gradient-10);
      }

      .cls-27 {
        fill: url(#radial-gradient);
      }

      .cls-28 {
        fill: url(#radial-gradient-27);
      }

      .cls-29 {
        fill: url(#radial-gradient-13);
      }

      .cls-30 {
        fill: url(#linear-gradient-16);
      }

      .cls-31 {
        fill: url(#linear-gradient-21);
      }

      .cls-32 {
        fill: url(#linear-gradient-25);
      }

      .cls-33 {
        fill: url(#linear-gradient-5);
      }

      .cls-34 {
        fill: url(#radial-gradient-24);
      }

      .cls-35 {
        fill: url(#radial-gradient-15);
      }

      .cls-36 {
        fill: url(#radial-gradient-2);
      }

      .cls-37 {
        fill: url(#radial-gradient-3);
      }

      .cls-38 {
        fill: url(#linear-gradient-7);
      }

      .cls-39 {
        fill: url(#linear-gradient-24);
      }

      .cls-40 {
        fill: url(#linear-gradient-9);
      }

      .cls-41 {
        fill: url(#radial-gradient-17);
      }

      .cls-42 {
        fill: url(#linear-gradient-22);
      }

      .cls-43 {
        fill: url(#radial-gradient-14);
      }

      .cls-44 {
        fill: url(#linear-gradient-3);
      }

      .cls-45 {
        fill: url(#linear-gradient);
      }

      .cls-46 {
        fill: url(#radial-gradient-29);
      }

      .cls-47 {
        fill: url(#linear-gradient-27);
      }

      .cls-48 {
        fill: url(#radial-gradient-23);
      }

      .cls-49 {
        fill: url(#linear-gradient-23);
      }

      .cls-50 {
        fill: url(#linear-gradient-19);
      }

      .cls-51 {
        fill: url(#linear-gradient-4);
      }

      .cls-52 {
        fill: url(#radial-gradient-11);
      }

      .cls-53 {
        fill: url(#radial-gradient-18);
      }

      .cls-54 {
        fill: url(#radial-gradient-9);
      }

      .cls-55 {
        fill: url(#linear-gradient-8);
      }

      .cls-56 {
        fill: url(#linear-gradient-12);
      }

      .cls-57 {
        fill: url(#linear-gradient-13);
      }

      .cls-58 {
        fill: url(#linear-gradient-26);
      }
    </style>
    <linearGradient id="linear-gradient" x1="12.17" y1="242.31" x2="12.17" y2="339.27" gradientUnits="userSpaceOnUse">
      <stop offset="0" stop-color="#97daf8"/>
      <stop offset=".03" stop-color="#89d1f2"/>
      <stop offset=".19" stop-color="#4eacdd"/>
      <stop offset=".33" stop-color="#2391ce"/>
      <stop offset=".44" stop-color="#0981c4"/>
      <stop offset=".5" stop-color="#007bc1"/>
      <stop offset="1" stop-color="#2f3068"/>
    </linearGradient>
    <linearGradient id="linear-gradient-2" x1="23.95" y1="242.31" x2="23.95" y2="339.27" xlink:href="#linear-gradient"/>
    <linearGradient id="linear-gradient-3" x1="44.26" y1="242.31" x2="44.26" y2="339.27" xlink:href="#linear-gradient"/>
    <linearGradient id="linear-gradient-4" x1="59.21" y1="242.31" x2="59.21" y2="339.27" xlink:href="#linear-gradient"/>
    <linearGradient id="linear-gradient-5" x1="72.84" y1="242.31" x2="72.84" y2="339.27" xlink:href="#linear-gradient"/>
    <linearGradient id="linear-gradient-6" x1="86.55" y1="242.31" x2="86.55" y2="339.27" xlink:href="#linear-gradient"/>
    <linearGradient id="linear-gradient-7" x1="106.1" y1="242.31" x2="106.1" y2="339.27" xlink:href="#linear-gradient"/>
    <linearGradient id="linear-gradient-8" x1="119.76" y1="242.31" x2="119.76" y2="339.27" xlink:href="#linear-gradient"/>
    <linearGradient id="linear-gradient-9" x1="129.44" y1="242.31" x2="129.44" y2="339.27" xlink:href="#linear-gradient"/>
    <linearGradient id="linear-gradient-10" x1="138.41" y1="242.31" x2="138.41" y2="339.27" xlink:href="#linear-gradient"/>
    <linearGradient id="linear-gradient-11" x1="152.02" y1="242.31" x2="152.02" y2="339.27" xlink:href="#linear-gradient"/>
    <linearGradient id="linear-gradient-12" x1="162.12" y1="242.31" x2="162.12" y2="339.27" xlink:href="#linear-gradient"/>
    <linearGradient id="linear-gradient-13" x1="171.46" y1="242.31" x2="171.46" y2="339.27" xlink:href="#linear-gradient"/>
    <linearGradient id="linear-gradient-14" x1="185.45" y1="242.31" x2="185.45" y2="339.27" xlink:href="#linear-gradient"/>
    <linearGradient id="linear-gradient-15" x1="203.21" y1="242.31" x2="203.21" y2="339.27" xlink:href="#linear-gradient"/>
    <linearGradient id="linear-gradient-16" x1="217.8" y1="242.31" x2="217.8" y2="339.27" xlink:href="#linear-gradient"/>
    <linearGradient id="linear-gradient-17" x1="228.6" y1="242.31" x2="228.6" y2="339.27" xlink:href="#linear-gradient"/>
    <linearGradient id="linear-gradient-18" x1="244.14" y1="242.31" x2="244.14" y2="339.27" xlink:href="#linear-gradient"/>
    <linearGradient id="linear-gradient-19" x1="257.62" y1="242.31" x2="257.62" y2="339.27" xlink:href="#linear-gradient"/>
    <linearGradient id="linear-gradient-20" x1="272.28" y1="242.31" x2="272.28" y2="339.27" xlink:href="#linear-gradient"/>
    <linearGradient id="linear-gradient-21" x1="289.13" y1="242.31" x2="289.13" y2="339.27" xlink:href="#linear-gradient"/>
    <linearGradient id="linear-gradient-22" x1="32.78" y1="242.31" x2="32.78" y2="339.27" xlink:href="#linear-gradient"/>
    <linearGradient id="linear-gradient-23" x1="84.94" y1="242.31" x2="84.94" y2="339.27" xlink:href="#linear-gradient"/>
    <linearGradient id="linear-gradient-24" x1="146.23" y1="242.31" x2="146.23" y2="339.27" xlink:href="#linear-gradient"/>
    <linearGradient id="linear-gradient-25" x1="212.06" y1="242.31" x2="212.06" y2="339.27" xlink:href="#linear-gradient"/>
    <linearGradient id="linear-gradient-26" x1="264.14" y1="242.31" x2="264.14" y2="339.27" xlink:href="#linear-gradient"/>
    <linearGradient id="linear-gradient-27" x1="149.63" y1="0" x2="149.63" y2="258.06" gradientUnits="userSpaceOnUse">
      <stop offset="0" stop-color="#eee808"/>
      <stop offset="1" stop-color="#febe10"/>
    </linearGradient>
    <radialGradient id="radial-gradient" cx="154.16" cy="124.54" fx="154.16" fy="124.54" r="88.14" gradientUnits="userSpaceOnUse">
      <stop offset="0" stop-color="#97daf8"/>
      <stop offset=".03" stop-color="#89d1f2"/>
      <stop offset=".19" stop-color="#4eacdd"/>
      <stop offset=".33" stop-color="#2391ce"/>
      <stop offset=".44" stop-color="#0981c4"/>
      <stop offset=".5" stop-color="#007bc1"/>
      <stop offset="1" stop-color="#2f3068"/>
    </radialGradient>
    <radialGradient id="radial-gradient-2" cx="154.16" cy="124.54" fx="154.16" fy="124.54" r="88.14" xlink:href="#radial-gradient"/>
    <radialGradient id="radial-gradient-3" cx="154.16" cy="124.54" fx="154.16" fy="124.54" r="88.14" xlink:href="#radial-gradient"/>
    <radialGradient id="radial-gradient-4" cx="154.16" cy="124.54" fx="154.16" fy="124.54" r="88.14" xlink:href="#radial-gradient"/>
    <radialGradient id="radial-gradient-5" cx="154.16" cy="123.12" fx="154.16" fy="123.12" r="97.63" xlink:href="#radial-gradient"/>
    <radialGradient id="radial-gradient-6" cx="154.16" cy="124.54" fx="154.16" fy="124.54" r="88.14" xlink:href="#radial-gradient"/>
    <radialGradient id="radial-gradient-7" cx="154.16" cy="124.54" fx="154.16" fy="124.54" r="88.14" xlink:href="#radial-gradient"/>
    <radialGradient id="radial-gradient-8" cx="154.16" cy="124.54" fx="154.16" fy="124.54" r="88.14" xlink:href="#radial-gradient"/>
    <radialGradient id="radial-gradient-9" cx="154.16" cy="124.54" fx="154.16" fy="124.54" r="88.14" xlink:href="#radial-gradient"/>
    <radialGradient id="radial-gradient-10" cx="154.16" cy="124.54" fx="154.16" fy="124.54" r="88.14" xlink:href="#radial-gradient"/>
    <radialGradient id="radial-gradient-11" cx="154.16" cy="124.54" fx="154.16" fy="124.54" r="88.14" xlink:href="#radial-gradient"/>
    <radialGradient id="radial-gradient-12" cx="154.16" fx="154.16" r="88.14" xlink:href="#radial-gradient"/>
    <radialGradient id="radial-gradient-13" cx="154.16" cy="124.54" fx="154.16" fy="124.54" r="88.14" xlink:href="#radial-gradient"/>
    <radialGradient id="radial-gradient-14" cx="154.16" cy="124.54" fx="154.16" fy="124.54" r="88.14" xlink:href="#radial-gradient"/>
    <radialGradient id="radial-gradient-15" cx="146.46" cy="124.54" fx="146.46" fy="124.54" r="88.14" xlink:href="#radial-gradient"/>
    <radialGradient id="radial-gradient-16" cx="146.46" cy="124.54" fx="146.46" fy="124.54" r="88.14" xlink:href="#radial-gradient"/>
    <radialGradient id="radial-gradient-17" cx="146.46" fx="146.46" r="88.14" xlink:href="#radial-gradient"/>
    <radialGradient id="radial-gradient-18" cx="146.46" cy="124.54" fx="146.46" fy="124.54" r="88.14" xlink:href="#radial-gradient"/>
    <radialGradient id="radial-gradient-19" cx="146.46" cy="124.54" fx="146.46" fy="124.54" r="88.14" xlink:href="#radial-gradient"/>
    <radialGradient id="radial-gradient-20" cx="146.46" cy="124.54" fx="146.46" fy="124.54" r="88.14" xlink:href="#radial-gradient"/>
    <radialGradient id="radial-gradient-21" cx="146.46" cy="124.54" fx="146.46" fy="124.54" r="88.14" xlink:href="#radial-gradient"/>
    <radialGradient id="radial-gradient-22" cx="146.46" cy="124.54" fx="146.46" fy="124.54" r="88.14" xlink:href="#radial-gradient"/>
    <radialGradient id="radial-gradient-23" cx="146.46" cy="124.54" fx="146.46" fy="124.54" r="88.14" xlink:href="#radial-gradient"/>
    <radialGradient id="radial-gradient-24" cx="146.46" cy="124.54" fx="146.46" fy="124.54" r="88.14" xlink:href="#radial-gradient"/>
    <radialGradient id="radial-gradient-25" cx="146.46" fx="146.46" r="88.14" xlink:href="#radial-gradient"/>
    <radialGradient id="radial-gradient-26" cx="146.46" cy="124.54" fx="146.46" fy="124.54" r="88.14" xlink:href="#radial-gradient"/>
    <radialGradient id="radial-gradient-27" cx="146.46" cy="124.54" fx="146.46" fy="124.54" r="88.14" xlink:href="#radial-gradient"/>
    <radialGradient id="radial-gradient-28" cx="146.46" cy="124.54" fx="146.46" fy="124.54" r="88.14" xlink:href="#radial-gradient"/>
    <radialGradient id="radial-gradient-29" cx="146.46" cy="124.54" fx="146.46" fy="124.54" r="88.14" xlink:href="#radial-gradient"/>
  </defs>
  <g id="Layer_1-2" data-name="Layer 1">
    <g>
      <path class="cls-4" d="M12.04,349.69c-1.01,0-2.01-.11-2.98-.34-1.15-.27-2.2-.75-3.11-1.43-.96-.71-1.75-1.67-2.32-2.84-.56-1.16-.85-2.55-.85-4.14,0-1.07,.18-2.17,.54-3.28,.35-1.07,.83-2.07,1.44-2.97,.66-.98,1.45-1.78,2.34-2.41,1.11-.77,2.31-1.16,3.59-1.16h7.97c1.05,0,2.02,.57,2.53,1.48,.51,.91,.49,2.03-.06,2.93-.41,.66-.81,1.29-1.22,1.87-.01,.02-.02,.03-.03,.05,.37,.68,.46,1.48,.23,2.23l-2.41,7.95c-.37,1.22-1.5,2.06-2.77,2.06h-2.89Z"/>
      <path class="cls-4" d="M12.71,338.85c-.18,.18-.38,.43-.61,.76-.23,.33-.45,.66-.65,.99-.2,.33-.37,.63-.52,.89-.14,.27-.23,.42-.24,.47v.02h2.17l-.43,1.57h-1.16c-.22,0-.46-.1-.7-.29-.24-.19-.46-.43-.65-.72-.19-.29-.35-.61-.48-.95-.13-.34-.19-.67-.19-.98,0-.13,.02-.28,.05-.45,.03-.17,.07-.35,.12-.54,.08-.27,.18-.55,.31-.83,.13-.28,.27-.53,.43-.76,.16-.22,.33-.41,.52-.54,.18-.14,.38-.21,.59-.21h5.01c.47-.48,.89-.99,1.26-1.53,.38-.54,.75-1.11,1.12-1.72h-7.97c-.67,0-1.32,.21-1.93,.64-.61,.43-1.14,.98-1.6,1.65-.46,.67-.82,1.42-1.08,2.24-.27,.82-.4,1.61-.4,2.38,0,1.16,.18,2.11,.55,2.87,.37,.76,.85,1.35,1.45,1.79,.59,.44,1.27,.75,2.04,.93,.76,.18,1.54,.27,2.32,.27h2.89l2.41-7.95h-4.63Z"/>
      <path class="cls-4" d="M16.68,349.69c-.91,0-1.77-.43-2.32-1.16-.55-.73-.72-1.68-.46-2.55l3.73-12.77c.36-1.24,1.49-2.09,2.78-2.09h8.84c1.05,0,2.01,.33,2.77,.94,.58,.47,1.05,1.07,1.39,1.78,.29,.63,.48,1.3,.58,2.03,.07,.54,.11,1.11,.11,1.69,0,.72-.12,1.37-.35,2-.18,.48-.39,.92-.64,1.34-.04,.07-.08,.14-.13,.2,.06,.31,.09,.62,.09,.94,0,.45-.06,.91-.17,1.36-.07,.29-.15,.57-.25,.84l-.04,.13c-.31,.93-.58,1.56-.87,2.08-.41,.75-.93,1.38-1.54,1.87-.63,.5-1.38,.86-2.22,1.09-.71,.19-1.5,.28-2.44,.28h-8.86Z"/>
      <path class="cls-4" d="M30.81,335.11c-.15-.32-.35-.58-.6-.78-.25-.2-.57-.3-.95-.3h-8.84l-3.73,12.77h8.86c.67,0,1.24-.06,1.7-.18s.84-.3,1.16-.55c.31-.25,.58-.57,.79-.98,.22-.4,.42-.88,.61-1.45l.07-.26c.08-.21,.15-.43,.21-.65,.06-.22,.08-.45,.08-.67,0-.32-.06-.61-.18-.88-.12-.26-.25-.47-.4-.61,.16-.1,.33-.24,.52-.45,.18-.2,.36-.43,.52-.7,.16-.27,.3-.55,.41-.86,.11-.3,.17-.62,.17-.94v-.05c0-.45-.03-.89-.08-1.32-.06-.43-.16-.81-.31-1.13Zm-4.54,7.13c0,.11-.02,.19-.05,.24l-.05,.12s-.07,.14-.17,.39c-.08,.08-.22,.19-.41,.33-.19,.14-.3,.2-.31,.2h-3.95l.51-1.61h4.43v.34Zm1.2-4.17s-.02,.12-.07,.2c-.05,.09-.1,.18-.14,.28-.05,.1-.1,.18-.14,.25-.05,.07-.08,.11-.1,.11h-3.08l-1.85,2.05,1.06-3.66h3.95s.1,.07,.19,.2c.1,.14,.16,.25,.19,.33,.02,.06,.03,.1,.05,.12l-.05,.12Z"/>
      <path class="cls-4" d="M46.19,349.69c-.84,0-1.64-.37-2.19-1.01l-.61-.7c-.46,1.03-1.49,1.71-2.64,1.71h-3.71c-.91,0-1.77-.43-2.32-1.16-.55-.73-.72-1.68-.46-2.55l3.73-12.77c.36-1.24,1.49-2.09,2.78-2.09h8.6c1.45,0,2.43,.57,3,1.05,.67,.58,1.15,1.27,1.46,2.07,.24,.61,.4,1.26,.47,1.94,.06,.54,.09,1.05,.09,1.52,0,1.36-.3,2.54-.9,3.53-.55,.9-1.26,1.64-2.11,2.18l1.24,1.58c.68,.87,.81,2.06,.32,3.06s-1.5,1.63-2.61,1.63h-4.14Z"/>
      <path class="cls-4" d="M51.13,335.3c-.14-.37-.36-.67-.64-.92-.28-.24-.65-.36-1.12-.36h-8.6l-3.73,12.77h3.71l1.28-4.38,.22-.19,3.95,4.58h4.14l-3.78-4.84c.51-.05,1.06-.14,1.64-.28,.58-.14,1.11-.36,1.6-.67,.49-.31,.89-.73,1.22-1.26,.32-.53,.48-1.2,.48-2.02,0-.37-.02-.77-.07-1.2-.05-.43-.14-.83-.29-1.2Zm-3.4,2.67c0,.16-.04,.35-.12,.57s-.22,.33-.41,.33h-3.08l-1.69,2.14,1.08-3.76h3.88c.16,0,.26,.04,.29,.13,.03,.09,.05,.2,.05,.33v.27Z"/>
      <path class="cls-4" d="M57.34,349.69c-.93,0-1.82-.1-2.64-.3-1.01-.25-1.91-.67-2.68-1.27-.84-.65-1.48-1.52-1.92-2.57-.4-.96-.6-2.06-.6-3.36,0-.26,.01-.54,.03-.82,.02-.27,.05-.55,.09-.83,.12-1.08,.43-2.23,.92-3.32,.48-1.08,1.09-2.05,1.8-2.9,.75-.9,1.63-1.64,2.59-2.2,1.12-.65,2.29-.99,3.48-.99h2.87c2.14,0,3.92,.57,5.29,1.69,1.55,1.27,2.33,3.17,2.33,5.66,0,.29-.01,.58-.03,.88-.02,.27-.05,.56-.09,.87-.14,1.18-.48,2.35-.99,3.46-.51,1.1-1.14,2.08-1.88,2.92-.79,.89-1.7,1.62-2.71,2.16-1.14,.61-2.35,.93-3.6,.93h-2.26Z"/>
      <path class="cls-4" d="M65.99,339.16c.02-.22,.02-.45,.02-.67,0-1.59-.42-2.73-1.26-3.42-.84-.69-2-1.04-3.46-1.04h-2.87c-.67,0-1.35,.2-2.02,.59-.67,.39-1.28,.92-1.83,1.57-.55,.65-1,1.39-1.37,2.22-.37,.83-.6,1.67-.7,2.54-.03,.22-.06,.44-.07,.65-.02,.21-.02,.41-.02,.6,0,.9,.12,1.65,.37,2.24,.25,.59,.59,1.06,1.04,1.41,.44,.35,.96,.59,1.57,.73,.6,.14,1.26,.22,1.96,.22h2.26c.77,0,1.51-.19,2.23-.58,.71-.39,1.35-.89,1.92-1.53,.56-.63,1.04-1.37,1.42-2.2,.39-.83,.63-1.7,.75-2.6,.03-.26,.06-.5,.07-.72Zm-3.7,.66c0,.14-.02,.27-.04,.4,0,.02,0,.04-.01,.07,0,.03-.01,.08-.01,.14l-.1,.24c0,.06-.02,.14-.06,.23-.04,.09-.08,.19-.13,.3-.13,.27-.31,.55-.54,.83-.23,.28-.48,.53-.75,.76-.26,.23-.51,.41-.75,.54-.23,.14-.41,.2-.52,.2h-1.59c-.24,0-.46-.08-.66-.24-.2-.16-.38-.37-.54-.63-.16-.26-.29-.54-.37-.86-.09-.31-.13-.61-.13-.9v-.14c0-.1,0-.15,.02-.17,.02-.13,.05-.28,.1-.45,.05-.17,.1-.35,.17-.54,.11-.27,.27-.55,.47-.83,.2-.28,.42-.53,.65-.76,.23-.22,.47-.41,.71-.54,.24-.14,.46-.21,.65-.21h1.9c.32,0,.58,.06,.78,.18,.2,.12,.36,.28,.47,.48,.11,.2,.19,.43,.23,.69,.04,.26,.06,.51,.06,.77,0,.14,0,.29-.01,.42Z"/>
      <path class="cls-4" d="M65.58,349.69c-.91,0-1.77-.43-2.32-1.16-.55-.73-.72-1.68-.46-2.55l3.73-12.77c.36-1.24,1.49-2.09,2.78-2.09h8.84c1.11,0,2.16,.43,2.95,1.22,.51,.51,.93,1.13,1.23,1.85,.23,.55,.41,1.15,.52,1.77,.1,.61,.15,1.14,.15,1.61,0,1.09-.22,2.12-.65,3.06-.39,.85-.9,1.61-1.52,2.26-.64,.67-1.38,1.2-2.18,1.57-.86,.4-1.74,.61-2.6,.61h-3.25l-.74,2.54c-.36,1.24-1.5,2.09-2.78,2.09h-3.71Z"/>
      <path class="cls-4" d="M80.11,337.57c0-.32-.04-.69-.11-1.1-.07-.41-.18-.79-.34-1.16-.15-.36-.35-.67-.6-.92-.25-.25-.55-.37-.9-.37h-8.84l-3.73,12.77h3.71l1.35-4.62h5.42c.43,0,.89-.11,1.37-.34,.48-.22,.92-.54,1.31-.95,.39-.41,.72-.9,.98-1.46s.39-1.18,.39-1.85Zm-3.73,.51s-.02,.12-.07,.2c-.05,.09-.1,.18-.14,.28-.05,.1-.1,.18-.14,.25-.05,.07-.08,.11-.1,.11h-3.08l-1.85,2.05,1.06-3.66h3.95s.1,.07,.19,.2c.1,.14,.16,.25,.19,.33,.02,.06,.03,.1,.05,.12l-.05,.12Z"/>
      <path class="cls-4" d="M79.19,349.69c-.91,0-1.77-.43-2.32-1.16-.55-.73-.72-1.68-.46-2.55l3.73-12.77c.36-1.24,1.49-2.09,2.78-2.09h10.98c.98,0,1.89,.49,2.42,1.31,.54,.82,.63,1.85,.24,2.74-.13,.3-.33,.7-.61,1.18-.24,.42-.5,.84-.79,1.25-.31,.46-.62,.85-.91,1.19-.12,.13-.3,.34-.55,.56-.09,.49-.31,.96-.64,1.36l-.31,.36c.36,.23,.68,.54,.91,.91,.53,.84,.59,1.9,.16,2.8,0,0-.44,.9-.44,.91-.05,.09-.11,.2-.18,.31h0c-.17,.29-.39,.62-.69,.99-.23,.29-.44,.55-.65,.81-.2,.25-.4,.48-.56,.66-.38,.42-1.11,1.22-2.41,1.22h-9.71Z"/>
      <path class="cls-4" d="M79.19,346.79h9.71s.1-.08,.24-.24c.14-.16,.31-.36,.51-.59,.19-.23,.39-.48,.59-.73,.2-.26,.36-.48,.47-.67,.02-.02,.05-.07,.1-.17,.05-.1,.1-.2,.16-.31,.06-.11,.11-.22,.16-.33,.05-.1,.08-.17,.1-.2h-7.39l.43-1.44h3.83l2.77-3.25h-4.46l-1.83,2.22,1.08-3.78h5.95c.1,0,.26-.13,.48-.39,.22-.26,.46-.56,.7-.92,.24-.35,.47-.71,.67-1.07,.21-.36,.36-.65,.46-.88h-10.98l-3.73,12.77Z"/>
      <path class="cls-4" d="M98.53,349.69c-.96,0-1.86-.47-2.4-1.27-.54-.79-.65-1.8-.3-2.69,.09-.23,.28-.62,.57-1.14,.23-.4,.46-.79,.7-1.18l.64-1.01c.15-.23,.42-.64,.83-1-.15-.34-.28-.7-.38-1.06-.19-.68-.28-1.37-.28-2.05,0-.73,.15-1.5,.44-2.3,.25-.69,.58-1.36,.99-1.99,.45-.69,.97-1.27,1.53-1.75,1.1-.93,2.21-1.12,2.94-1.12h9.83c1.03,0,1.98,.55,2.5,1.44,.52,.89,.53,1.99,.02,2.89-.35,.61-.72,1.23-1.14,1.84-.42,.63-.91,1.26-1.45,1.89-.07,.08-.14,.15-.21,.22,.19,.47,.33,.96,.42,1.45,.12,.64,.17,1.21,.17,1.74,0,.86-.12,1.6-.37,2.37-.23,.71-.54,1.38-.93,1.99-.42,.65-.91,1.22-1.46,1.67-.85,.7-1.84,1.06-2.86,1.06h-9.83Z"/>
      <path class="cls-4" d="M104.66,337.67c.1-.24,.23-.36,.37-.36h6.36c.47-.55,.88-1.09,1.25-1.64,.37-.55,.71-1.09,1.01-1.64h-9.83c-.37,0-.73,.15-1.08,.45s-.67,.67-.96,1.11c-.29,.44-.52,.91-.7,1.4-.18,.49-.27,.93-.27,1.31,0,.42,.06,.84,.18,1.28,.12,.43,.29,.83,.51,1.19,.22,.36,.48,.66,.79,.89,.31,.23,.66,.35,1.05,.35h3.85c.11,0,.18,.07,.22,.2,.03,.14,.05,.27,.05,.4v.29c0,.16-.02,.31-.05,.46-.03,.14-.14,.22-.34,.22h-6.55s-.17,.14-.35,.42c-.18,.28-.39,.6-.61,.96-.23,.36-.44,.72-.64,1.07-.2,.35-.33,.61-.4,.77h9.83c.35,0,.69-.13,1.01-.4,.32-.27,.61-.6,.87-1,.26-.4,.46-.84,.61-1.31,.15-.47,.23-.92,.23-1.34v-.14c0-.37-.04-.77-.12-1.2-.08-.43-.21-.84-.4-1.22-.18-.38-.43-.69-.72-.94-.3-.25-.66-.37-1.1-.37h-3.66s-.07-.03-.17-.08c-.1-.06-.17-.12-.22-.18-.03-.03-.07-.08-.12-.13-.05-.06-.07-.09-.07-.11v-.12c0-.14,.05-.34,.16-.58Z"/>
      <path class="cls-4" d="M120.79,349.69c-.98,0-1.89-.49-2.42-1.31l-.33-.5c-.44,1.09-1.5,1.81-2.69,1.81h-3.71c-.91,0-1.77-.43-2.32-1.16-.55-.73-.72-1.68-.46-2.55l3.73-12.77c.36-1.24,1.49-2.09,2.78-2.09h3.69c.91,0,1.77,.43,2.32,1.16l.47-.42c.53-.48,1.22-.74,1.94-.74h4.12c1.18,0,2.25,.72,2.69,1.82,.44,1.1,.17,2.36-.69,3.17l-5.02,4.8,2.56,4.41c.52,.9,.52,2,0,2.9-.52,.9-1.48,1.45-2.51,1.45h-4.14Z"/>
      <polygon class="cls-4" points="127.89 334.03 123.78 334.03 117.39 339.76 119.05 334.03 115.37 334.03 111.64 346.79 115.34 346.79 117.03 341.06 120.79 346.79 124.93 346.79 121.22 340.41 127.89 334.03"/>
      <path class="cls-4" d="M125.73,349.69c-.91,0-1.77-.43-2.32-1.16-.55-.73-.72-1.67-.47-2.55l3.71-12.77c.36-1.24,1.49-2.09,2.78-2.09h3.71c.91,0,1.77,.43,2.32,1.16,.55,.73,.72,1.67,.47,2.55l-3.71,12.77c-.36,1.24-1.49,2.09-2.78,2.09h-3.71Z"/>
      <polygon class="cls-4" points="129.44 334.03 125.73 346.79 129.44 346.79 133.15 334.03 129.44 334.03"/>
      <path class="cls-4" d="M131.14,349.69c-.91,0-1.77-.43-2.32-1.16-.55-.73-.72-1.68-.46-2.55l3.74-12.77c.36-1.24,1.49-2.09,2.78-2.09h8.84c1.11,0,2.16,.43,2.95,1.22,.52,.52,.93,1.14,1.23,1.85,.24,.56,.41,1.16,.52,1.79,.1,.58,.15,1.12,.15,1.59,0,1.08-.22,2.11-.64,3.05-.4,.87-.91,1.63-1.53,2.27-.65,.68-1.38,1.2-2.18,1.57-.86,.4-1.74,.61-2.6,.61h-3.25l-.74,2.54c-.36,1.24-1.5,2.09-2.78,2.09h-3.71Z"/>
      <path class="cls-4" d="M145.67,337.57c0-.32-.04-.69-.11-1.1-.07-.41-.18-.79-.34-1.16-.15-.36-.35-.67-.6-.92-.25-.25-.55-.37-.9-.37h-8.84l-3.73,12.77h3.71l1.35-4.62h5.42c.43,0,.89-.11,1.37-.34,.48-.22,.92-.54,1.31-.95,.39-.41,.72-.9,.98-1.46,.26-.56,.39-1.18,.39-1.85Zm-3.73,.51s-.02,.12-.07,.2c-.05,.09-.1,.18-.14,.28-.05,.1-.1,.18-.14,.25-.05,.07-.08,.11-.1,.11h-3.08l-1.85,2.05,1.06-3.66h3.95s.1,.07,.19,.2c.1,.14,.16,.25,.19,.33,.02,.06,.03,.1,.05,.12l-.05,.12Z"/>
      <path class="cls-4" d="M144.75,349.69c-.91,0-1.77-.43-2.32-1.16-.55-.73-.72-1.68-.46-2.55l3.74-12.77c.36-1.24,1.49-2.09,2.78-2.09h8.84c1.11,0,2.16,.43,2.95,1.22,.52,.52,.93,1.14,1.23,1.85,.23,.55,.41,1.15,.52,1.77,.1,.61,.15,1.14,.15,1.61,0,1.09-.22,2.12-.65,3.06-.39,.85-.9,1.61-1.52,2.26-.64,.67-1.38,1.2-2.18,1.57-.85,.4-1.73,.61-2.59,.61h-3.25l-.74,2.54c-.36,1.24-1.49,2.09-2.78,2.09h-3.71Z"/>
      <path class="cls-4" d="M159.28,337.57c0-.32-.04-.69-.11-1.1-.07-.41-.18-.79-.34-1.16-.15-.36-.35-.67-.6-.92-.25-.25-.55-.37-.9-.37h-8.84l-3.73,12.77h3.71l1.35-4.62h5.42c.43,0,.89-.11,1.37-.34,.48-.22,.92-.54,1.31-.95,.39-.41,.72-.9,.98-1.46s.39-1.18,.39-1.85Zm-3.73,.51s-.02,.12-.07,.2c-.05,.09-.1,.18-.14,.28-.05,.1-.1,.18-.14,.25-.05,.07-.08,.11-.1,.11h-3.08l-1.85,2.05,1.06-3.66h3.95s.1,.07,.19,.2c.1,.14,.16,.25,.19,.33,.02,.06,.03,.1,.05,.12l-.05,.12Z"/>
      <path class="cls-4" d="M158.41,349.69c-.91,0-1.77-.43-2.32-1.16-.55-.73-.72-1.67-.47-2.55l3.71-12.77c.36-1.24,1.49-2.09,2.78-2.09h3.71c.91,0,1.77,.43,2.32,1.16,.55,.73,.72,1.67,.47,2.55l-3.71,12.77c-.36,1.24-1.49,2.09-2.78,2.09h-3.71Z"/>
      <polygon class="cls-4" points="162.12 334.03 158.41 346.79 162.12 346.79 165.83 334.03 162.12 334.03"/>
      <path class="cls-4" d="M170.7,349.69c-.58,0-1.12-.17-1.58-.47-.46,.3-1,.47-1.58,.47h-3.71c-.91,0-1.77-.43-2.32-1.16-.55-.73-.72-1.68-.46-2.55l3.73-12.77c.36-1.24,1.49-2.09,2.78-2.09h4.65c.59,0,1.14,.18,1.6,.48,.46-.31,1.02-.48,1.6-.48h3.66c.91,0,1.77,.43,2.32,1.16,.55,.73,.72,1.67,.47,2.55l-3.71,12.77c-.36,1.24-1.49,2.09-2.78,2.09h-4.67Z"/>
      <polygon class="cls-4" points="175.42 334.03 173.32 341.21 172.21 334.03 167.57 334.03 163.83 346.79 167.54 346.79 169.61 339.62 170.7 346.79 175.37 346.79 179.08 334.03 175.42 334.03"/>
      <path class="cls-4" d="M185.32,349.69c-1,0-2.01-.11-2.98-.34-1.15-.27-2.2-.75-3.11-1.42-.97-.72-1.75-1.68-2.32-2.85-.56-1.15-.85-2.54-.85-4.14,0-1.07,.18-2.17,.54-3.28,.35-1.07,.83-2.07,1.44-2.97,.66-.97,1.45-1.78,2.35-2.41,1.09-.76,2.33-1.16,3.58-1.16h7.97c1.05,0,2.01,.56,2.53,1.48,.51,.91,.5,2.03-.05,2.93-.4,.66-.81,1.29-1.22,1.87l-.04,.06c.37,.68,.45,1.48,.23,2.22l-2.41,7.95c-.37,1.22-1.5,2.06-2.77,2.06h-2.89Z"/>
      <path class="cls-4" d="M182.04,334.67c-.61,.43-1.14,.98-1.6,1.65-.46,.67-.82,1.42-1.08,2.24-.26,.82-.4,1.61-.4,2.38,0,1.16,.18,2.11,.55,2.87,.37,.76,.85,1.35,1.44,1.79,.59,.44,1.27,.75,2.04,.93,.76,.18,1.54,.27,2.32,.27h2.89l2.41-7.95h-4.62c-.18,.18-.38,.43-.61,.76-.23,.33-.45,.66-.65,.99-.2,.33-.37,.63-.52,.89-.14,.27-.22,.42-.24,.47v.02h2.17l-.43,1.57h-1.16c-.22,0-.46-.1-.7-.29-.24-.19-.46-.43-.65-.72-.19-.29-.35-.61-.48-.95-.13-.34-.19-.67-.19-.98,0-.13,.02-.28,.05-.45,.03-.17,.07-.35,.12-.54,.08-.27,.18-.55,.31-.83,.13-.28,.27-.53,.43-.76,.16-.22,.33-.41,.52-.54,.18-.14,.38-.21,.59-.21h5.01c.47-.48,.89-.99,1.26-1.53,.38-.54,.75-1.11,1.12-1.72h-7.97c-.67,0-1.32,.21-1.93,.64Z"/>
      <path class="cls-4" d="M206.68,349.69c-.4,0-.78-.08-1.12-.23-.35,.15-.73,.23-1.12,.23h-8.14c-.89,0-1.73-.41-2.28-1.11-.55-.7-.75-1.61-.53-2.48,0-.03,.02-.06,.02-.09,.07-.36,.2-.71,.38-1l6.82-10.9c.11-.23,.25-.46,.42-.7,.18-.25,.37-.5,.58-.73,.21-.24,.43-.46,.64-.65,.85-.75,1.7-.91,2.27-.91h3.23c1.15,0,2.22,.63,2.84,1.69,.22,.37,.4,.78,.55,1.25,.11,.37,.2,.72,.28,1.1l.14,.61c.03,.11,.04,.22,.06,.33l1.28,10.33c.1,.82-.16,1.65-.71,2.28-.55,.62-1.34,.98-2.17,.98h-3.44Z"/>
      <path class="cls-4" d="M208.69,335.75c-.06-.28-.12-.55-.2-.81-.08-.26-.17-.47-.28-.65-.1-.18-.22-.26-.35-.26h-3.23c-.1,0-.21,.06-.35,.18-.14,.12-.27,.26-.41,.41-.14,.15-.26,.31-.37,.47-.11,.16-.18,.29-.22,.39l-6.94,11.08v.07s-.02,.04-.05,.17h8.14c.1-.05,.24-.2,.43-.46,.19-.26,.39-.54,.59-.84,.2-.3,.38-.59,.53-.87,.15-.27,.24-.46,.28-.55l.41,2.72h3.44l-1.28-10.33c-.05-.19-.1-.43-.16-.71Zm-6.32,7.82v-.24l3.23-5.42,.67,5.66h-3.9Z"/>
      <path class="cls-4" d="M217.67,349.69c-1,0-2.01-.11-2.98-.34-1.15-.27-2.2-.75-3.11-1.43-.96-.71-1.75-1.67-2.32-2.84-.56-1.15-.85-2.54-.85-4.14,0-1.11,.18-2.21,.53-3.32,.36-1.1,.85-2.1,1.46-2.98,.65-.94,1.43-1.73,2.33-2.35,1.11-.77,2.31-1.16,3.59-1.16h7.97c1.05,0,2.01,.56,2.53,1.48,.51,.91,.5,2.03-.05,2.93-.41,.67-.81,1.29-1.22,1.88-.46,.66-.99,1.29-1.55,1.88-.55,.57-1.3,.89-2.09,.89h-3.99c-.04,.09-.07,.18-.1,.26l-.04,.2h3.74c1.03,0,1.98,.54,2.5,1.43,.52,.89,.53,1.98,.03,2.88-.33,.6-.7,1.22-1.11,1.84-.48,.75-1.06,1.45-1.72,2.08-.54,.52-1.26,.82-2.02,.82h-1.54Z"/>
      <path class="cls-4" d="M216.21,343.25c-.23-.19-.45-.43-.65-.72-.2-.29-.37-.61-.49-.95-.13-.34-.19-.67-.19-.98,0-.13,.02-.28,.05-.45,.03-.17,.07-.35,.12-.54,.08-.27,.19-.55,.33-.83,.14-.28,.29-.53,.46-.76,.17-.22,.35-.41,.53-.54,.18-.14,.37-.21,.54-.21h5.01c.47-.48,.89-.99,1.26-1.53,.38-.54,.75-1.11,1.12-1.72h-7.97c-.67,0-1.32,.21-1.93,.64-.61,.43-1.14,.97-1.6,1.63-.46,.66-.82,1.4-1.08,2.22-.26,.82-.4,1.61-.4,2.38v.05c0,1.16,.18,2.11,.55,2.87,.37,.76,.85,1.35,1.45,1.79,.59,.44,1.27,.75,2.04,.93,.76,.18,1.54,.27,2.32,.27h1.54c.5-.48,.93-1.01,1.3-1.58,.37-.57,.71-1.13,1.01-1.67h-4.62c-.23,0-.45-.1-.69-.29Z"/>
      <path class="cls-4" d="M232.07,349.69c-.4,0-.78-.08-1.12-.23-.35,.15-.73,.23-1.12,.23h-8.14c-.89,0-1.73-.41-2.28-1.11-.55-.7-.75-1.61-.53-2.48,.01-.04,.02-.08,.03-.12,.07-.34,.2-.68,.38-.97l6.82-10.9c.11-.23,.25-.46,.42-.7,.18-.26,.38-.51,.61-.76,.18-.21,.41-.43,.63-.63,.85-.75,1.7-.91,2.27-.91h3.23c1.15,0,2.22,.63,2.84,1.69,.23,.38,.41,.81,.56,1.28,.11,.33,.2,.71,.28,1.1l.13,.58c.03,.11,.04,.22,.06,.33l1.28,10.33c.1,.82-.16,1.65-.71,2.28-.55,.62-1.34,.98-2.17,.98h-3.44Z"/>
      <path class="cls-4" d="M234.08,335.75c-.06-.28-.12-.55-.2-.81-.08-.26-.17-.47-.28-.65-.1-.18-.22-.26-.35-.26h-3.23c-.1,0-.21,.06-.35,.18-.14,.12-.27,.26-.41,.41-.14,.15-.26,.31-.37,.47-.11,.16-.18,.29-.22,.39l-6.94,11.08v.07s-.02,.04-.05,.17h8.14c.1-.05,.24-.2,.43-.46,.19-.26,.39-.54,.59-.84,.2-.3,.38-.59,.53-.87,.15-.27,.24-.46,.28-.55l.41,2.72h3.44l-1.28-10.33c-.05-.19-.1-.43-.16-.71Zm-6.32,7.82v-.24l3.23-5.42,.67,5.66h-3.9Z"/>
      <path class="cls-4" d="M236.99,349.69c-.91,0-1.77-.43-2.32-1.16-.55-.73-.72-1.68-.46-2.55l3.73-12.77c.36-1.24,1.49-2.09,2.78-2.09h8.38c1.76,0,3.21,.75,4.1,2.11,.66,1,.99,2.22,.99,3.61,0,.88-.14,1.84-.42,2.83-.28,.98-.67,1.92-1.17,2.79-.59,1.1-1.24,2.12-1.88,2.97-.73,.97-1.55,1.77-2.45,2.4-.93,.65-1.96,1.14-3.06,1.43-1.02,.27-2.17,.41-3.41,.41h-4.82Z"/>
      <path class="cls-4" d="M251.29,336.85c0-.82-.17-1.49-.52-2.02-.35-.53-.9-.79-1.67-.79h-8.38l-3.73,12.77h4.82c1,0,1.88-.1,2.66-.31,.78-.21,1.49-.54,2.14-1,.65-.46,1.25-1.05,1.81-1.78,.55-.73,1.11-1.62,1.67-2.66,.39-.67,.68-1.39,.89-2.13,.21-.75,.31-1.43,.31-2.06Zm-4.12,2.07c-.08,.24-.16,.49-.24,.75-.06,.21-.14,.39-.24,.55-.1,.16-.18,.31-.26,.43-.19,.35-.46,.7-.79,1.05-.34,.35-.71,.65-1.11,.93-.4,.27-.81,.49-1.22,.66-.41,.17-.78,.25-1.12,.25h-.51l1.83-6.26h3.11c.24,0,.41,.09,.52,.28,.1,.18,.16,.41,.16,.69,0,.21-.04,.43-.12,.67Z"/>
      <path class="cls-4" d="M250.26,349.69c-.91,0-1.77-.43-2.32-1.16-.55-.73-.72-1.68-.46-2.55l3.73-12.77c.36-1.24,1.49-2.09,2.78-2.09h10.98c.98,0,1.89,.49,2.42,1.31,.54,.82,.63,1.85,.24,2.74-.13,.3-.33,.7-.61,1.18-.24,.41-.5,.83-.79,1.25-.31,.45-.61,.85-.9,1.18-.11,.13-.3,.34-.57,.57-.09,.49-.31,.97-.64,1.37l-.31,.36c.39,.24,.72,.58,.96,.99,.52,.89,.53,1.99,.03,2.88-.05,.13-.13,.28-.21,.44l-.16,.32c-.04,.09-.1,.19-.17,.29h0c-.17,.29-.4,.63-.7,1.01-.2,.26-.41,.52-.62,.78-.24,.29-.44,.52-.61,.71-.28,.32-1.04,1.18-2.38,1.18h-9.71Z"/>
      <path class="cls-4" d="M262.66,337.28c.1,0,.26-.13,.48-.39,.22-.26,.46-.56,.7-.92,.24-.35,.47-.71,.67-1.07,.21-.36,.36-.65,.46-.88h-10.98l-3.73,12.77h9.71s.1-.08,.24-.24c.14-.16,.31-.36,.51-.59,.19-.23,.39-.48,.59-.73,.2-.26,.36-.48,.47-.67,.02-.02,.05-.07,.1-.17,.05-.1,.1-.2,.16-.31,.06-.11,.11-.22,.16-.33,.05-.1,.08-.17,.1-.2h-7.39l.43-1.44h3.83l2.77-3.25h-4.46l-1.83,2.22,1.08-3.78h5.95Z"/>
      <path class="cls-4" d="M274.25,349.69c-.57,0-1.11-.17-1.58-.47-.46,.3-1.01,.47-1.58,.47h-1.35c-.57,0-1.11-.17-1.57-.46-.45,.29-.99,.46-1.57,.46h-3.71c-.91,0-1.77-.43-2.32-1.16-.55-.73-.72-1.68-.46-2.55l3.73-12.77c.36-1.24,1.49-2.09,2.78-2.09h4.65c1.28,0,2.38,.83,2.76,2.01l.61-.83c.55-.74,1.41-1.18,2.33-1.18h4.67c.91,0,1.77,.43,2.32,1.16,.55,.73,.72,1.68,.46,2.55l-3.73,12.77c-.36,1.24-1.49,2.09-2.78,2.09h-3.69Z"/>
      <polygon class="cls-4" points="272.27 340.43 271.28 334.03 266.64 334.03 262.9 346.79 266.61 346.79 268.68 339.62 269.74 346.79 271.09 346.79 276.32 339.62 274.25 346.79 277.93 346.79 281.67 334.03 276.99 334.03 272.27 340.43"/>
      <path class="cls-4" d="M283.57,349.69c-.91,0-1.77-.43-2.32-1.16-.55-.73-.72-1.67-.47-2.55l1.51-5.22-1.89-5.85c-.29-.88-.13-1.85,.41-2.6,.55-.75,1.42-1.19,2.34-1.19h4.12c.69,0,1.34,.25,1.86,.67,.52-.43,1.17-.67,1.85-.67h4.12c1.15,0,2.19,.68,2.65,1.73,.46,1.05,.27,2.27-.5,3.12l-5.62,6.2-1.59,5.43c-.36,1.24-1.49,2.08-2.78,2.08h-3.69Z"/>
      <polygon class="cls-4" points="290.99 334.03 288.24 337.04 287.28 334.03 283.16 334.03 285.33 340.72 283.57 346.79 287.25 346.79 289.04 340.72 295.11 334.03 290.99 334.03"/>
    </g>
    <path class="cls-45" d="M17.33,338.85l-2.41,7.95h-2.89c-.79,0-1.56-.09-2.32-.27-.76-.18-1.44-.49-2.04-.93-.59-.44-1.08-1.04-1.45-1.79-.37-.75-.55-1.71-.55-2.87,0-.77,.13-1.57,.4-2.38,.26-.82,.63-1.57,1.08-2.24,.46-.67,.99-1.22,1.6-1.65,.61-.43,1.25-.64,1.93-.64h7.97c-.37,.61-.74,1.18-1.12,1.72-.38,.54-.8,1.05-1.26,1.53h-5.01c-.21,0-.41,.07-.59,.21-.18,.14-.36,.32-.52,.54-.16,.23-.31,.48-.43,.76-.13,.28-.23,.56-.31,.83-.05,.19-.09,.37-.12,.54-.03,.17-.05,.32-.05,.45,0,.31,.06,.63,.19,.98,.13,.35,.29,.66,.48,.95,.19,.29,.41,.53,.65,.72,.24,.19,.47,.29,.7,.29h1.16l.43-1.57h-2.17v-.02s.1-.2,.24-.47c.14-.26,.32-.56,.52-.89,.2-.33,.42-.66,.65-.99,.23-.33,.44-.58,.61-.76h4.62Z"/>
    <path class="cls-1" d="M29.26,334.03c.39,0,.7,.1,.95,.3,.25,.2,.45,.46,.6,.78,.15,.32,.26,.7,.31,1.13,.06,.43,.08,.88,.08,1.32v.05c0,.32-.06,.63-.17,.94-.11,.31-.25,.59-.41,.86-.16,.26-.33,.5-.52,.7-.18,.2-.36,.35-.52,.45,.14,.14,.28,.35,.4,.61,.12,.27,.18,.56,.18,.88,0,.23-.03,.45-.08,.67-.06,.23-.12,.44-.2,.65l-.07,.26c-.19,.56-.4,1.04-.61,1.45-.22,.4-.48,.73-.8,.98-.31,.25-.7,.43-1.16,.55s-1.02,.18-1.7,.18h-8.86l3.73-12.77h8.84Zm-3.97,9.49s.12-.07,.31-.2c.19-.14,.33-.24,.41-.33,.1-.24,.15-.37,.17-.39l.05-.12s.05-.13,.05-.24v-.34h-4.43l-.51,1.61h3.95Zm-1.35-4.6h3.08s.05-.04,.1-.11c.05-.07,.1-.16,.14-.25s.1-.19,.14-.28c.05-.09,.07-.16,.07-.2l.05-.12s-.03-.06-.05-.12c-.03-.08-.1-.19-.19-.33-.1-.14-.16-.2-.19-.2h-3.95l-1.06,3.66,1.85-2.05Z"/>
    <path class="cls-44" d="M40.77,334.03h8.6c.47,0,.84,.12,1.12,.36,.28,.24,.49,.55,.64,.92,.14,.37,.24,.77,.29,1.2,.05,.43,.07,.84,.07,1.2,0,.82-.16,1.49-.48,2.02-.32,.53-.73,.95-1.22,1.26-.49,.31-1.02,.54-1.6,.67-.58,.14-1.12,.23-1.64,.28l3.78,4.84h-4.14l-3.95-4.58-.22,.19-1.28,4.38h-3.71l3.73-12.77Zm6.96,3.69c0-.13-.02-.24-.05-.33-.03-.09-.13-.13-.29-.13h-3.88l-1.08,3.76,1.69-2.14h3.08c.19,0,.33-.11,.41-.33s.12-.41,.12-.57v-.27Z"/>
    <path class="cls-51" d="M65.17,342.48c-.39,.84-.86,1.57-1.42,2.2-.56,.63-1.2,1.14-1.92,1.53-.71,.39-1.46,.58-2.23,.58h-2.26c-.71,0-1.36-.07-1.96-.22-.6-.14-1.12-.39-1.57-.73-.44-.35-.79-.82-1.04-1.41-.25-.59-.37-1.34-.37-2.24,0-.19,0-.39,.02-.6,.02-.21,.04-.43,.07-.65,.1-.87,.33-1.71,.7-2.54,.37-.83,.83-1.57,1.37-2.22,.55-.65,1.16-1.17,1.83-1.57,.67-.39,1.35-.59,2.02-.59h2.87c1.46,0,2.61,.35,3.46,1.04,.84,.69,1.26,1.83,1.26,3.42,0,.23,0,.45-.02,.67-.02,.23-.04,.47-.07,.72-.11,.9-.36,1.77-.75,2.6Zm-9.08-1.71v.14c0,.29,.04,.59,.13,.9,.09,.31,.21,.6,.37,.86,.16,.26,.34,.47,.54,.63,.2,.16,.42,.24,.66,.24h1.59c.11,0,.28-.07,.52-.2,.23-.14,.48-.32,.75-.54,.27-.22,.51-.48,.75-.76,.23-.28,.41-.56,.54-.83,.05-.11,.09-.21,.13-.3,.04-.09,.06-.16,.06-.23l.1-.24c0-.06,0-.11,.01-.14,0-.03,.01-.06,.01-.07,.02-.13,.03-.26,.04-.4,0-.14,.01-.28,.01-.42,0-.26-.02-.51-.06-.77-.04-.26-.12-.49-.23-.69-.11-.2-.27-.36-.47-.48-.2-.12-.46-.18-.78-.18h-1.9c-.19,0-.41,.07-.65,.21s-.48,.32-.71,.54c-.23,.23-.45,.48-.65,.76-.2,.28-.36,.56-.47,.83-.06,.19-.12,.37-.17,.54-.05,.17-.08,.32-.1,.45-.02,.02-.02,.07-.02,.17Z"/>
    <path class="cls-33" d="M69.31,334.03h8.84c.35,0,.65,.12,.9,.37,.25,.25,.45,.55,.6,.92,.15,.36,.27,.75,.34,1.16,.07,.41,.11,.77,.11,1.1,0,.67-.13,1.29-.39,1.85-.26,.56-.58,1.05-.98,1.46-.39,.41-.83,.73-1.31,.95-.48,.23-.94,.34-1.37,.34h-5.42l-1.35,4.62h-3.71l3.73-12.77Zm1.66,6.94l1.85-2.05h3.08s.05-.04,.1-.11c.05-.07,.1-.16,.14-.25s.1-.19,.14-.28c.05-.09,.07-.16,.07-.2l.05-.12s-.03-.06-.05-.12c-.03-.08-.1-.19-.19-.33-.1-.14-.16-.2-.19-.2h-3.95l-1.06,3.66Z"/>
    <path class="cls-16" d="M93.91,334.03c-.1,.23-.25,.52-.46,.88-.21,.36-.43,.72-.67,1.07-.24,.35-.47,.66-.7,.92-.23,.26-.39,.39-.48,.39h-5.95l-1.08,3.78,1.83-2.22h4.46l-2.77,3.25h-3.83l-.43,1.45h7.39s-.05,.1-.1,.2c-.05,.1-.1,.21-.16,.33-.06,.11-.11,.22-.16,.31-.05,.1-.08,.15-.1,.17-.11,.19-.27,.42-.47,.67-.2,.26-.4,.5-.59,.73-.19,.23-.36,.43-.51,.59-.14,.16-.23,.24-.24,.24h-9.71l3.73-12.77h10.98Z"/>
    <path class="cls-38" d="M107.47,342.75v-.14c0-.13-.02-.26-.05-.4-.03-.14-.1-.2-.22-.2h-3.85c-.39,0-.73-.12-1.05-.35-.31-.23-.58-.53-.79-.89-.22-.36-.39-.76-.51-1.19s-.18-.86-.18-1.28c0-.39,.09-.82,.27-1.31,.18-.49,.41-.96,.7-1.4,.29-.44,.61-.81,.96-1.11,.35-.3,.71-.45,1.08-.45h9.83c-.31,.55-.64,1.09-1.01,1.64-.37,.55-.79,1.09-1.25,1.64h-6.36c-.14,0-.27,.12-.37,.36-.1,.24-.16,.43-.16,.58v.12s.02,.05,.07,.11c.05,.06,.09,.1,.12,.13,.05,.06,.12,.12,.22,.18,.1,.06,.15,.08,.17,.08h3.66c.43,0,.8,.12,1.1,.37,.3,.25,.54,.56,.72,.94,.18,.38,.32,.78,.4,1.22,.08,.43,.12,.84,.12,1.2v.14c0,.42-.08,.86-.23,1.34-.15,.47-.36,.91-.61,1.31-.26,.4-.55,.73-.87,1-.32,.26-.66,.4-1.01,.4h-9.83c.06-.16,.2-.42,.4-.77,.2-.35,.41-.71,.64-1.07,.22-.36,.43-.68,.61-.96,.18-.28,.3-.42,.35-.42h6.55c.19,0,.3-.07,.34-.22,.03-.14,.05-.3,.05-.46v-.14Z"/>
    <path class="cls-55" d="M115.37,334.03h3.69l-1.66,5.73,6.38-5.73h4.12l-6.67,6.38,3.71,6.38h-4.14l-3.76-5.73-1.69,5.73h-3.71l3.73-12.77Z"/>
    <path class="cls-40" d="M129.44,334.03h3.71l-3.71,12.77h-3.71l3.71-12.77Z"/>
    <path class="cls-26" d="M134.88,334.03h8.84c.35,0,.65,.12,.9,.37,.25,.25,.45,.55,.6,.92,.15,.36,.27,.75,.34,1.16,.07,.41,.11,.77,.11,1.1,0,.67-.13,1.29-.39,1.85-.26,.56-.58,1.05-.98,1.46-.39,.41-.83,.73-1.31,.95-.48,.23-.94,.34-1.37,.34h-5.42l-1.35,4.62h-3.71l3.73-12.77Zm1.66,6.94l1.85-2.05h3.08s.05-.04,.1-.11c.05-.07,.1-.16,.14-.25s.1-.19,.14-.28c.05-.09,.07-.16,.07-.2l.05-.12s-.03-.06-.05-.12c-.03-.08-.1-.19-.19-.33-.1-.14-.16-.2-.19-.2h-3.95l-1.06,3.66Z"/>
    <path class="cls-19" d="M148.49,334.03h8.84c.35,0,.65,.12,.9,.37,.25,.25,.45,.55,.6,.92,.15,.36,.27,.75,.34,1.16,.07,.41,.11,.77,.11,1.1,0,.67-.13,1.29-.39,1.85-.26,.56-.58,1.05-.98,1.46-.39,.41-.83,.73-1.31,.95-.48,.23-.94,.34-1.37,.34h-5.42l-1.35,4.62h-3.71l3.73-12.77Zm1.66,6.94l1.85-2.05h3.08s.05-.04,.1-.11c.05-.07,.1-.16,.14-.25,.05-.1,.1-.19,.14-.28,.05-.09,.07-.16,.07-.2l.05-.12s-.03-.06-.05-.12c-.03-.08-.1-.19-.19-.33-.1-.14-.16-.2-.19-.2h-3.95l-1.06,3.66Z"/>
    <path class="cls-56" d="M162.12,334.03h3.71l-3.71,12.77h-3.71l3.71-12.77Z"/>
    <path class="cls-57" d="M167.57,334.03h4.65l1.11,7.18,2.1-7.18h3.66l-3.71,12.77h-4.67l-1.08-7.18-2.07,7.18h-3.71l3.73-12.77Z"/>
    <path class="cls-12" d="M190.62,338.85l-2.41,7.95h-2.89c-.79,0-1.56-.09-2.32-.27-.76-.18-1.44-.49-2.04-.93-.59-.44-1.08-1.04-1.45-1.79-.37-.75-.55-1.71-.55-2.87,0-.77,.13-1.57,.4-2.38,.27-.82,.63-1.57,1.08-2.24,.46-.67,.99-1.22,1.6-1.65,.61-.43,1.25-.64,1.93-.64h7.97c-.37,.61-.74,1.18-1.12,1.72-.38,.54-.8,1.05-1.26,1.53h-5.01c-.21,0-.41,.07-.59,.21s-.36,.32-.52,.54c-.16,.23-.31,.48-.43,.76-.13,.28-.23,.56-.31,.83-.05,.19-.09,.37-.12,.54-.03,.17-.05,.32-.05,.45,0,.31,.06,.63,.19,.98,.13,.35,.29,.66,.48,.95,.19,.29,.41,.53,.65,.72,.24,.19,.47,.29,.7,.29h1.16l.43-1.57h-2.17v-.02s.1-.2,.24-.47c.14-.26,.32-.56,.52-.89,.2-.33,.42-.66,.65-.99,.23-.33,.44-.58,.61-.76h4.62Z"/>
    <path class="cls-8" d="M206.68,346.79l-.41-2.72c-.03,.1-.12,.28-.28,.55-.15,.27-.33,.56-.53,.87-.2,.31-.4,.59-.59,.84-.19,.26-.34,.41-.43,.46h-8.14c.03-.13,.05-.18,.05-.17v-.07l6.94-11.08c.03-.1,.1-.22,.22-.39,.11-.16,.24-.32,.37-.47,.14-.15,.27-.29,.41-.41,.14-.12,.25-.18,.35-.18h3.23c.13,0,.24,.09,.35,.26,.1,.18,.2,.39,.28,.65,.08,.26,.15,.53,.2,.81s.11,.52,.16,.71l1.28,10.33h-3.44Zm-4.31-3.23h3.9l-.67-5.66-3.23,5.42v.24Z"/>
    <path class="cls-30" d="M211.31,340.89c0-.77,.13-1.57,.4-2.38,.26-.82,.63-1.56,1.08-2.22,.46-.66,.99-1.2,1.6-1.63,.61-.43,1.25-.64,1.93-.64h7.97c-.37,.61-.74,1.18-1.12,1.72-.38,.54-.8,1.05-1.26,1.53h-5.01c-.18,0-.36,.07-.54,.21-.18,.14-.36,.32-.53,.54-.17,.23-.32,.48-.46,.76-.14,.28-.25,.56-.33,.83-.05,.19-.09,.37-.12,.54-.03,.17-.05,.32-.05,.45,0,.31,.06,.63,.19,.98,.13,.35,.29,.66,.49,.95,.2,.29,.42,.53,.65,.72,.23,.19,.46,.29,.69,.29h4.62c-.31,.55-.64,1.1-1.01,1.67-.37,.57-.8,1.1-1.3,1.58h-1.54c-.79,0-1.56-.09-2.32-.27-.76-.18-1.44-.49-2.04-.93-.59-.44-1.08-1.04-1.45-1.79-.37-.75-.55-1.71-.55-2.87v-.05Z"/>
    <path class="cls-6" d="M232.07,346.79l-.41-2.72c-.03,.1-.12,.28-.28,.55-.15,.27-.33,.56-.53,.87-.2,.31-.4,.59-.59,.84-.19,.26-.34,.41-.43,.46h-8.14c.03-.13,.05-.18,.05-.17v-.07l6.94-11.08c.03-.1,.1-.22,.22-.39,.11-.16,.24-.32,.37-.47,.14-.15,.27-.29,.41-.41,.14-.12,.25-.18,.35-.18h3.23c.13,0,.24,.09,.35,.26,.1,.18,.2,.39,.28,.65,.08,.26,.15,.53,.2,.81,.06,.28,.11,.52,.16,.71l1.28,10.33h-3.44Zm-4.31-3.23h3.9l-.67-5.66-3.23,5.42v.24Z"/>
    <path class="cls-9" d="M250.09,341.04c-.56,1.04-1.12,1.93-1.67,2.66-.55,.73-1.16,1.32-1.81,1.78-.65,.46-1.36,.79-2.14,1-.78,.21-1.67,.31-2.66,.31h-4.82l3.73-12.77h8.38c.77,0,1.33,.26,1.67,.79,.35,.53,.52,1.2,.52,2.02,0,.63-.1,1.31-.31,2.06-.21,.75-.51,1.46-.89,2.13Zm-6.58-3.76l-1.83,6.26h.51c.34,0,.71-.08,1.12-.25,.41-.17,.82-.39,1.22-.66,.4-.27,.77-.58,1.11-.93,.34-.34,.6-.69,.79-1.05,.08-.13,.17-.27,.27-.43,.1-.16,.18-.35,.24-.55,.08-.26,.16-.51,.24-.75,.08-.24,.12-.47,.12-.67,0-.27-.05-.5-.16-.69-.1-.18-.28-.28-.52-.28h-3.11Z"/>
    <path class="cls-50" d="M264.97,334.03c-.1,.23-.25,.52-.46,.88-.21,.36-.43,.72-.67,1.07-.24,.35-.47,.66-.7,.92-.23,.26-.39,.39-.48,.39h-5.95l-1.08,3.78,1.83-2.22h4.46l-2.77,3.25h-3.83l-.43,1.45h7.39s-.05,.1-.1,.2c-.05,.1-.1,.21-.16,.33-.06,.11-.11,.22-.16,.31-.05,.1-.08,.15-.1,.17-.11,.19-.27,.42-.47,.67-.2,.26-.4,.5-.59,.73-.19,.23-.36,.43-.51,.59-.14,.16-.23,.24-.24,.24h-9.71l3.73-12.77h10.98Z"/>
    <path class="cls-15" d="M274.25,346.79l2.07-7.18-5.23,7.18h-1.35l-1.06-7.18-2.07,7.18h-3.71l3.73-12.77h4.65l.99,6.41,4.72-6.41h4.67l-3.73,12.77h-3.69Z"/>
    <path class="cls-31" d="M285.33,340.72l-2.17-6.7h4.12l.96,3.01,2.75-3.01h4.12l-6.07,6.7-1.78,6.07h-3.69l1.76-6.07Z"/>
    <g>
      <g>
        <path class="cls-4" d="M32.27,329.5c-3.78,0-7.52-.34-11.09-1.01-3.81-.71-7.29-1.98-10.34-3.77-3.22-1.88-5.86-4.47-7.83-7.72-2-3.3-3.01-7.4-3.01-12.22,0-3.24,.71-6.59,2.09-9.97,1.36-3.29,3.22-6.32,5.53-9.02,2.34-2.73,5.08-5,8.16-6.73,3.27-1.84,6.79-2.77,10.48-2.77H61.7c1.47,0,2.81,.83,3.47,2.15,.65,1.32,.5,2.89-.39,4.06-1.72,2.25-3.46,4.38-5.19,6.34-1.4,1.59-2.92,3.14-4.53,4.6h.73c1.27,0,2.46,.62,3.18,1.67,.72,1.05,.89,2.38,.44,3.57l-10.72,28.32c-.57,1.5-2.01,2.5-3.62,2.5h-12.79Zm-3.43-33.89c-.15,0-.39,.02-.75,.23-.5,.28-.96,.66-1.39,1.15-.52,.59-1.01,1.27-1.45,2.04-.45,.79-.82,1.58-1.09,2.34-.42,1.4-.46,2.06-.46,2.22,0,.35,.07,.74,.2,1.18,.06-.08,.11-.16,.17-.25,.71-1.01,1.53-2.12,2.49-3.35,.95-1.22,1.95-2.43,2.98-3.65,.61-.72,1.2-1.35,1.76-1.91h-2.47Z"/>
        <path class="cls-4" d="M35.18,297.32c-.8,.63-1.7,1.53-2.7,2.7-1,1.17-1.96,2.35-2.88,3.52-.91,1.17-1.7,2.23-2.36,3.17-.66,.95-1.02,1.5-1.07,1.67v.09h9.69l-1.97,5.58h-5.06c-1.03,0-2.07-.34-3.13-1.03-1.06-.69-2.03-1.55-2.92-2.57-.89-1.03-1.6-2.16-2.14-3.39-.54-1.23-.81-2.39-.81-3.48,0-.86,.23-2.03,.69-3.52,.34-.97,.8-1.96,1.37-2.96,.57-1,1.21-1.9,1.93-2.71,.72-.8,1.5-1.44,2.36-1.93,.86-.49,1.74-.73,2.66-.73h22.31c2-1.71,3.85-3.53,5.53-5.45,1.69-1.92,3.36-3.96,5.02-6.14H26.26c-3.04,0-5.89,.76-8.58,2.27-2.69,1.52-5.06,3.48-7.12,5.88-2.06,2.4-3.69,5.06-4.89,7.98-1.2,2.92-1.8,5.75-1.8,8.5,0,4.12,.82,7.52,2.44,10.21,1.63,2.69,3.79,4.82,6.48,6.39,2.69,1.58,5.72,2.68,9.1,3.31,3.37,.63,6.83,.94,10.38,.94h12.79l10.72-28.32h-20.59Z"/>
        <path class="cls-4" d="M52.63,329.5c-1.26,0-2.44-.61-3.17-1.65-.72-1.03-.9-2.35-.47-3.54l16.56-45.47c.56-1.53,2.01-2.54,3.63-2.54h39.38c2.46,0,4.6,.57,6.34,1.68,1.63,1.05,2.95,2.43,3.91,4.11,.89,1.55,1.51,3.35,1.84,5.33,.29,1.76,.44,3.56,.44,5.35s-.36,3.5-1.07,5.09c-.6,1.34-1.35,2.62-2.25,3.8-.72,.95-1.49,1.81-2.31,2.58,.63,1.32,.99,2.76,1.07,4.29,0,1.44-.21,2.69-.65,3.9-.3,.83-.6,1.64-.89,2.41l-.32,.87c-1.03,2.41-2.05,4.35-3.11,5.96-1.25,1.89-2.84,3.45-4.75,4.63-1.8,1.12-3.96,1.95-6.43,2.47-2.31,.49-5.05,.72-8.4,.72H52.63Z"/>
        <path class="cls-4" d="M114.71,299.34c.71-.95,1.32-1.96,1.8-3.05,.49-1.09,.73-2.2,.73-3.35v-.17c0-1.6-.13-3.17-.39-4.72-.26-1.55-.72-2.89-1.37-4.03-.66-1.14-1.55-2.07-2.66-2.79-1.12-.72-2.53-1.07-4.25-1.07h-39.38l-16.56,45.47h39.38c3.03,0,5.56-.21,7.59-.64,2.03-.43,3.76-1.09,5.19-1.97,1.43-.89,2.62-2.05,3.56-3.48,.95-1.43,1.85-3.15,2.7-5.15l.34-.94c.29-.74,.57-1.52,.86-2.32,.29-.8,.43-1.6,.43-2.4-.06-1.14-.34-2.19-.86-3.13-.52-.94-1.09-1.67-1.72-2.19,.68-.34,1.44-.87,2.27-1.59,.83-.71,1.6-1.55,2.32-2.49Zm-19.48,10.08c-.03,.4-.1,.69-.21,.86l-.17,.43c-.06,.06-.31,.52-.77,1.38-.17,.17-.43,.36-.78,.55-.34,.2-.69,.4-1.03,.6-.35,.2-.8,.44-1.37,.73h-17.59l2.23-5.75h19.73c0,.4-.01,.8-.04,1.2Zm5.45-14.85c-.06,.17-.19,.42-.39,.73-.2,.32-.41,.64-.64,.98-.23,.34-.45,.64-.64,.9-.2,.26-.33,.39-.39,.39h-13.73l-8.24,7.29,4.72-13.04h17.59c.12,0,.39,.24,.82,.73,.43,.49,.73,.87,.9,1.16,.06,.23,.11,.38,.17,.43l-.17,.43Z"/>
        <path class="cls-4" d="M154.85,329.5c-.97,0-1.91-.37-2.62-1.02l-13.92-12.84-4.1,11.32c-.55,1.53-2.01,2.55-3.63,2.55h-16.48c-1.26,0-2.44-.61-3.17-1.65-.72-1.03-.9-2.35-.47-3.54l16.56-45.47c.56-1.53,2.01-2.54,3.63-2.54h38.27c2.75,0,5.09,.67,6.97,1.98,1.73,1.2,3.11,2.76,4.09,4.63,.88,1.7,1.49,3.53,1.8,5.46,.29,1.75,.44,3.41,.44,4.92,0,3.77-.99,6.98-2.93,9.54-1.77,2.34-4.01,4.22-6.66,5.6-2.45,1.28-5.18,2.2-8.11,2.76l11.46,11.75c1.09,1.11,1.4,2.77,.79,4.2-.61,1.43-2.01,2.36-3.56,2.36h-18.36Z"/>
        <path class="cls-4" d="M176.56,284.71c-.69-1.32-1.65-2.4-2.88-3.26-1.23-.86-2.82-1.29-4.76-1.29h-38.27l-16.56,45.47h16.47l5.66-15.62,.94-.69,17.68,16.3h18.36l-16.82-17.25c2.29-.17,4.73-.5,7.34-.99,2.6-.49,4.98-1.29,7.12-2.4,2.15-1.12,3.93-2.62,5.36-4.5,1.43-1.89,2.15-4.29,2.15-7.21,0-1.32-.13-2.74-.39-4.29-.26-1.55-.73-2.97-1.42-4.29Zm-14.84,9.52c0,.57-.19,1.24-.56,2.02-.37,.77-.99,1.16-1.84,1.16h-13.73l-7.55,7.64,4.89-13.38h17.24c.69,0,1.12,.16,1.29,.47,.17,.32,.26,.7,.26,1.16v.94Z"/>
        <path class="cls-4" d="M178.39,329.5c-1.34,0-2.58-.69-3.29-1.83-.7-1.14-.77-2.56-.17-3.76,.37-.76,1.01-1.76,2.06-3.25,.92-1.31,1.9-2.63,2.94-3.97,1.04-1.33,2.01-2.53,2.9-3.57,1.2-1.4,2.44-2.85,4.48-2.85h5.33c-1.54-1.01-2.9-2.27-4.05-3.76-1.27-1.63-2.24-3.44-2.89-5.4-.64-1.94-.97-3.88-.97-5.77s.51-4.01,1.55-6.29c.94-2.04,2.14-3.98,3.59-5.78,1.5-1.88,3.24-3.48,5.18-4.76,2.24-1.48,4.58-2.23,6.94-2.23h43.76c1.43,0,2.74,.79,3.42,2.05,.67,1.26,.59,2.8-.21,3.98-1.42,2.08-3.03,4.17-4.79,6.2-1.75,2.02-3.73,4.08-5.89,6.11-.72,.68-1.67,1.05-2.65,1.05h-4.63c1.67,1.18,3.05,2.64,4.11,4.36,1.03,1.67,1.8,3.49,2.3,5.39,.48,1.86,.73,3.63,.73,5.26v.52c0,1.98-.44,4.07-1.31,6.21-.83,2.03-1.92,3.91-3.24,5.6-1.37,1.76-2.98,3.25-4.8,4.43-2.09,1.35-4.31,2.04-6.61,2.04h-43.76Z"/>
        <path class="cls-4" d="M234.24,310.71c0-1.31-.2-2.75-.6-4.29-.4-1.55-1.02-2.99-1.85-4.33-.83-1.34-1.9-2.46-3.22-3.35-1.32-.88-2.89-1.33-4.72-1.33h-16.3c-.06,0-.3-.1-.73-.3-.43-.2-.76-.42-.99-.65-.11-.11-.29-.27-.51-.47-.23-.2-.34-.33-.34-.38v-.43c0-.51,.23-1.2,.69-2.06,.45-.86,1-1.29,1.63-1.29h28.31c2.06-1.94,3.94-3.89,5.62-5.83,1.69-1.94,3.19-3.89,4.51-5.84h-43.76c-1.6,0-3.2,.53-4.8,1.59-1.6,1.06-3.03,2.37-4.29,3.95-1.26,1.57-2.29,3.23-3.09,4.98-.8,1.75-1.2,3.3-1.2,4.68,0,1.49,.26,3,.77,4.55,.51,1.54,1.27,2.96,2.28,4.25,1,1.29,2.19,2.34,3.56,3.17,1.37,.83,2.92,1.24,4.63,1.24h17.16c.46,0,.77,.25,.94,.73,.17,.49,.26,.96,.26,1.42v1.03c0,.57-.07,1.12-.22,1.63-.14,.52-.64,.78-1.5,.78h-29.17c-.17,0-.69,.5-1.54,1.5-.86,1-1.79,2.15-2.79,3.43-1,1.29-1.95,2.56-2.83,3.82-.89,1.26-1.47,2.17-1.76,2.74h43.76c1.54,0,3.04-.47,4.5-1.42,1.46-.94,2.75-2.13,3.86-3.56,1.12-1.43,2.02-2.99,2.7-4.67,.68-1.69,1.03-3.27,1.03-4.76v-.52Z"/>
        <path class="cls-4" d="M279.63,329.5c-1.86,0-3.46-1.33-3.8-3.16l-.2-1.07c-.42,.48-.84,.94-1.25,1.38-1.3,1.39-2.23,2.13-3.18,2.54-.48,.2-1,.31-1.52,.31h-36.3c-1.19,0-2.31-.55-3.04-1.48-.73-.94-.99-2.16-.71-3.31,.04-.16,.08-.31,.13-.46,.12-.67,.37-1.37,.75-1.85l30.7-39.23c.33-.55,.78-1.14,1.39-1.82,.6-.67,1.25-1.32,1.96-1.96,.69-.63,1.42-1.21,2.13-1.73,1.29-.92,2.52-1.37,3.75-1.37h14.41c1.03,0,2.99,.32,4.64,2.43,.73,.96,1.34,2.07,1.81,3.34,.39,1.04,.74,2.14,1.03,3.28l.65,2.55c.03,.12,.05,.23,.07,.35l5.67,36.81c.17,1.12-.15,2.25-.89,3.11s-1.81,1.35-2.93,1.35h-15.27Zm-6.29-19.23l-.98-6.55-4.89,6.55h5.86Z"/>
        <path class="cls-4" d="M289.24,288.83c-.17-.68-.38-1.53-.64-2.53-.26-1-.56-1.96-.9-2.87-.34-.91-.76-1.69-1.24-2.32-.49-.63-1.01-.94-1.59-.94h-14.42c-.4,0-.9,.22-1.5,.64-.6,.43-1.2,.92-1.8,1.46-.6,.54-1.16,1.1-1.67,1.67-.52,.57-.86,1.03-1.03,1.37l-30.89,39.47v.26c0-.06-.06,.14-.17,.6h36.29c.4-.17,1.03-.71,1.89-1.63,.86-.91,1.73-1.92,2.62-3,.88-1.09,1.68-2.11,2.4-3.09,.72-.97,1.13-1.63,1.25-1.98l1.8,9.7h15.27l-5.66-36.81Zm-28.83,25.31v-.86l14.41-19.31,3,20.16h-17.42Z"/>
      </g>
      <path class="cls-42" d="M35.18,297.32c-.8,.63-1.7,1.53-2.7,2.7-1,1.18-1.96,2.35-2.88,3.52-.91,1.17-1.7,2.23-2.36,3.17-.66,.95-1.02,1.5-1.07,1.67v.09h9.69l-1.97,5.58h-5.06c-1.03,0-2.07-.34-3.13-1.03-1.06-.69-2.03-1.55-2.92-2.57-.89-1.03-1.6-2.16-2.14-3.39-.54-1.23-.81-2.39-.81-3.48,0-.86,.23-2.03,.69-3.52,.34-.97,.8-1.96,1.37-2.96,.57-1,1.21-1.9,1.93-2.71,.71-.8,1.5-1.44,2.36-1.93,.86-.49,1.74-.73,2.66-.73h22.31c2-1.71,3.85-3.53,5.53-5.45,1.69-1.92,3.36-3.96,5.02-6.14H26.26c-3.03,0-5.89,.76-8.58,2.27-2.69,1.52-5.06,3.48-7.12,5.88-2.06,2.4-3.69,5.06-4.89,7.98-1.2,2.92-1.8,5.75-1.8,8.49,0,4.12,.82,7.52,2.44,10.21,1.63,2.69,3.79,4.82,6.48,6.39,2.69,1.58,5.72,2.68,9.1,3.31,3.37,.63,6.83,.94,10.38,.94h12.79l10.72-28.32h-20.59Z"/>
      <path class="cls-49" d="M114.71,299.34c.71-.95,1.32-1.96,1.8-3.05,.49-1.09,.73-2.2,.73-3.35v-.17c0-1.6-.13-3.17-.39-4.72-.26-1.55-.72-2.89-1.37-4.03-.66-1.14-1.55-2.07-2.66-2.79-1.12-.72-2.53-1.07-4.25-1.07h-39.38l-16.56,45.47h39.38c3.03,0,5.56-.21,7.59-.64,2.03-.43,3.76-1.09,5.19-1.97,1.43-.89,2.61-2.05,3.56-3.48,.95-1.43,1.84-3.15,2.7-5.15l.34-.94c.29-.74,.57-1.52,.86-2.32,.29-.8,.43-1.6,.43-2.4-.06-1.14-.34-2.19-.86-3.13-.52-.94-1.09-1.67-1.72-2.19,.68-.34,1.44-.87,2.27-1.59,.83-.71,1.6-1.55,2.32-2.49Zm-19.48,10.08c-.03,.4-.1,.69-.21,.86l-.17,.43c-.06,.06-.31,.52-.77,1.37-.17,.17-.43,.36-.78,.55-.34,.2-.69,.4-1.03,.6-.35,.2-.8,.44-1.37,.73h-17.59l2.23-5.75h19.73c0,.4-.01,.8-.04,1.2Zm5.45-14.85c-.06,.17-.19,.42-.39,.73-.2,.32-.41,.64-.64,.99-.23,.34-.45,.64-.64,.9-.2,.26-.33,.39-.39,.39h-13.73l-8.24,7.29,4.72-13.04h17.59c.12,0,.39,.24,.81,.73,.43,.49,.73,.87,.9,1.16,.06,.23,.11,.38,.17,.43l-.17,.43Z"/>
      <path class="cls-39" d="M176.56,284.71c-.69-1.32-1.65-2.4-2.88-3.26-1.23-.86-2.82-1.29-4.76-1.29h-38.27l-16.56,45.47h16.47l5.66-15.62,.94-.69,17.68,16.3h18.36l-16.82-17.25c2.29-.17,4.73-.5,7.34-.99,2.6-.49,4.98-1.29,7.12-2.4,2.15-1.12,3.93-2.62,5.36-4.5,1.43-1.89,2.15-4.29,2.15-7.21,0-1.32-.13-2.74-.39-4.29-.26-1.55-.73-2.97-1.42-4.29Zm-14.84,9.52c0,.57-.19,1.24-.56,2.02-.37,.77-.99,1.16-1.84,1.16h-13.73l-7.55,7.64,4.89-13.38h17.24c.69,0,1.12,.16,1.29,.47,.17,.32,.26,.7,.26,1.16v.94Z"/>
      <path class="cls-32" d="M234.24,310.71c0-1.31-.2-2.75-.6-4.29-.4-1.55-1.02-2.99-1.85-4.33-.83-1.34-1.9-2.46-3.22-3.35-1.32-.88-2.89-1.33-4.72-1.33h-16.3c-.06,0-.3-.1-.73-.3-.43-.2-.76-.42-.99-.65-.11-.11-.29-.27-.51-.47-.23-.2-.34-.33-.34-.38v-.43c0-.51,.23-1.2,.69-2.06,.45-.86,1-1.29,1.63-1.29h28.31c2.06-1.94,3.94-3.89,5.62-5.83,1.69-1.94,3.19-3.89,4.51-5.84h-43.76c-1.6,0-3.2,.53-4.8,1.59-1.6,1.06-3.03,2.37-4.29,3.95-1.26,1.57-2.29,3.23-3.09,4.98-.8,1.75-1.2,3.3-1.2,4.68,0,1.49,.26,3,.77,4.55,.51,1.54,1.27,2.96,2.28,4.25,1,1.29,2.19,2.34,3.56,3.17,1.37,.83,2.92,1.24,4.63,1.24h17.16c.46,0,.77,.25,.94,.73,.17,.49,.26,.96,.26,1.42v1.03c0,.57-.07,1.12-.22,1.63-.14,.52-.64,.78-1.5,.78h-29.17c-.17,0-.69,.5-1.54,1.5-.86,1-1.79,2.15-2.79,3.43-1,1.29-1.95,2.56-2.83,3.82-.89,1.26-1.47,2.17-1.76,2.74h43.76c1.54,0,3.04-.47,4.5-1.42,1.46-.94,2.75-2.13,3.86-3.56,1.12-1.43,2.02-2.99,2.7-4.67,.68-1.69,1.03-3.27,1.03-4.76v-.52Z"/>
      <path class="cls-58" d="M289.24,288.83c-.17-.68-.38-1.53-.64-2.53-.26-1-.56-1.96-.9-2.87-.34-.91-.76-1.69-1.24-2.32-.49-.63-1.02-.94-1.59-.94h-14.42c-.4,0-.9,.22-1.5,.64-.6,.43-1.2,.92-1.8,1.46-.6,.54-1.16,1.1-1.67,1.67-.52,.57-.86,1.03-1.03,1.37l-30.89,39.47v.26c0-.06-.06,.14-.17,.6h36.29c.4-.17,1.03-.71,1.89-1.63,.86-.91,1.73-1.92,2.62-3,.88-1.09,1.68-2.11,2.4-3.09,.72-.97,1.13-1.63,1.25-1.98l1.8,9.7h15.27l-5.66-36.81Zm-28.83,25.31v-.86l14.42-19.31,3,20.16h-17.42Z"/>
    </g>
    <rect class="cls-47" x="17.2" width="264.85" height="264.85" rx="32.2" ry="32.2"/>
    <circle class="cls-4" cx="149.49" cy="132.45" r="126.13"/>
    <g>
      <g>
        <polygon class="cls-5" points="116.2 218.23 116.2 218.24 116.2 218.24 116.2 218.23"/>
        <rect class="cls-5" x="118.41" y="147.64" width="33.76" height="20.46" rx="4.27" ry="4.27"/>
        <rect class="cls-5" x="122.68" y="151.91" width="25.23" height="11.92"/>
        <path class="cls-5" d="M73.57,153.06c-1.92,0-3.6-1.28-4.11-3.13-1.15-4.13-1.97-8.36-2.45-12.58-.14-1.21,.25-2.42,1.06-3.32,.81-.91,1.97-1.42,3.18-1.42h31.36c2.04,0,3.8,1.45,4.19,3.46,.72,3.72,1.96,7.35,3.71,10.81,.67,1.32,.6,2.9-.18,4.16-.78,1.26-2.15,2.03-3.63,2.03h-33.13Z"/>
        <path class="cls-5" d="M71.25,136.87h31.36c.81,4.21,2.21,8.21,4.09,11.92h-33.13c-1.07-3.86-1.86-7.84-2.32-11.92Z"/>
        <path class="cls-5" d="M70.97,138.02c-2.24,0-4.09-1.73-4.26-3.96-.16-2.2-.24-4.15-.24-5.97,0-2.03,.09-4.19,.29-6.61,.18-2.22,2.03-3.93,4.25-3.93h31.19c1.23,0,2.4,.53,3.21,1.46,.81,.93,1.18,2.16,1.01,3.38-.26,1.94-.4,3.85-.4,5.69,0,1.66,.11,3.39,.32,5.14,.15,1.21-.23,2.43-1.04,3.35-.81,.91-1.97,1.44-3.19,1.44h-31.16Z"/>
        <path class="cls-5" d="M102.13,133.76h-31.16c-.14-1.87-.23-3.75-.23-5.66,0-2.11,.11-4.2,.27-6.27h31.19c-.28,2.05-.43,4.14-.43,6.27,0,1.92,.13,3.8,.35,5.66Z"/>
        <path class="cls-5" d="M80.32,95.13c-1.51,0-2.91-.8-3.67-2.1-.77-1.3-.79-2.91-.06-4.23,2.27-4.11,4.93-8.07,7.92-11.77,.81-1.01,2.03-1.59,3.32-1.59h60.08c2.36,0,4.27,1.91,4.27,4.27v2.26c0,2.36-1.91,4.27-4.27,4.27-8.95,0-17.49,2.79-24.71,8.08-.73,.54-1.61,.82-2.52,.82h-40.36Z"/>
        <path class="cls-5" d="M147.91,81.96c-10.19,0-19.59,3.31-27.23,8.9h-40.36c2.18-3.94,4.69-7.67,7.5-11.16h60.09v2.26Z"/>
        <rect class="cls-5" x="103.35" y="117.49" width="48.83" height="20.53" rx="4.27" ry="4.27"/>
        <rect class="cls-5" x="107.61" y="121.76" width="40.3" height="12"/>
        <path class="cls-5" d="M122.68,153.06c-2.36,0-4.27-1.91-4.27-4.27v-.74h-10.8c-2.36,0-4.27-1.91-4.27-4.27v-6.91c0-2.36,1.91-4.27,4.27-4.27h40.29c2.36,0,4.27,1.91,4.27,4.27v11.92c0,2.36-1.91,4.27-4.27,4.27h-25.23Z"/>
        <polygon class="cls-5" points="147.91 136.87 147.91 148.79 122.68 148.79 122.68 143.78 107.61 143.78 107.61 136.87 147.91 136.87"/>
        <path class="cls-5" d="M90.47,80.86c-1.68,0-3.21-.99-3.9-2.53-.69-1.54-.4-3.34,.72-4.59,3.91-4.36,8.32-8.32,13.13-11.77,.73-.52,1.6-.8,2.49-.8h45c2.36,0,4.27,1.91,4.27,4.27v11.16c0,2.36-1.91,4.27-4.27,4.27h-57.44Z"/>
        <path class="cls-5" d="M147.91,65.43v11.16h-57.44c3.73-4.15,7.9-7.89,12.44-11.16h45Z"/>
        <path class="cls-5" d="M71.33,122.99c-1.22,0-2.38-.52-3.19-1.44-.81-.91-1.19-2.13-1.04-3.34,.46-3.78,1.17-7.49,2.11-11.05,.5-1.87,2.19-3.17,4.12-3.17h32.92c1.46,0,2.83,.75,3.61,1.99,.78,1.24,.87,2.79,.24,4.11-1.44,3.03-2.52,6.22-3.19,9.5-.41,1.98-2.15,3.4-4.18,3.4h-31.4Z"/>
        <path class="cls-5" d="M106.25,108.25c-1.57,3.29-2.77,6.8-3.52,10.47h-31.4c.43-3.57,1.1-7.07,2-10.47h32.92Z"/>
        <path class="cls-5" d="M74.22,109.4c-1.36,0-2.63-.65-3.44-1.74-.8-1.09-1.04-2.5-.64-3.8,1.23-3.96,2.82-7.93,4.72-11.78,.72-1.46,2.2-2.38,3.83-2.38h38.17c1.76,0,3.34,1.08,3.98,2.73,.63,1.64,.19,3.51-1.11,4.7-3.21,2.92-5.95,6.33-8.13,10.13-.76,1.32-2.17,2.14-3.7,2.14h-33.68Z"/>
        <path class="cls-5" d="M116.86,93.98c-3.54,3.22-6.56,6.99-8.96,11.16h-33.69c1.2-3.86,2.71-7.58,4.48-11.16h38.16Z"/>
        <path class="cls-5" d="M102.91,195.04c-.89,0-1.77-.28-2.49-.8-4.8-3.45-9.21-7.41-13.13-11.77-1.12-1.25-1.41-3.05-.72-4.59,.69-1.54,2.21-2.53,3.9-2.53h57.44c2.36,0,4.27,1.91,4.27,4.27v11.16c0,2.36-1.91,4.27-4.27,4.27h-45Z"/>
        <path class="cls-5" d="M147.91,179.61v11.16h-45c-4.54-3.27-8.72-7-12.44-11.16h57.44Z"/>
        <path class="cls-5" d="M107.57,66.58c-1.91,0-3.59-1.27-4.11-3.11-.52-1.84,.24-3.8,1.87-4.8,12.79-7.86,27.51-12.01,42.57-12.01,2.36,0,4.27,1.91,4.27,4.27v11.38c0,2.36-1.91,4.27-4.27,4.27h-40.34Z"/>
        <path class="cls-5" d="M147.91,50.93v11.38h-40.34c11.74-7.21,25.55-11.38,40.34-11.38Z"/>
        <path class="cls-5" d="M79.52,168.09c-1.59,0-3.04-.88-3.78-2.29-2.12-4.05-3.9-8.28-5.29-12.58-.42-1.3-.19-2.72,.61-3.82,.8-1.1,2.09-1.76,3.45-1.76h33.92c1.49,0,2.88,.78,3.65,2.06,2.5,4.12,5.66,7.77,9.41,10.83,1.4,1.14,1.93,3.04,1.32,4.74-.61,1.7-2.22,2.83-4.02,2.83h-39.27Z"/>
        <path class="cls-5" d="M118.78,163.83h-39.27c-1.99-3.8-3.67-7.78-5.01-11.92h33.92c2.75,4.55,6.26,8.58,10.36,11.92Z"/>
        <path class="cls-5" d="M147.91,209.54c-15.06,0-29.79-4.16-42.57-12.02-1.63-1-2.39-2.96-1.87-4.8,.52-1.84,2.2-3.11,4.11-3.11h40.34c2.36,0,4.27,1.91,4.27,4.27v11.38c0,2.36-1.91,4.27-4.27,4.27Z"/>
        <path class="cls-5" d="M147.91,193.88v11.38c-14.79,0-28.6-4.17-40.34-11.38h40.34Z"/>
        <path class="cls-5" d="M87.82,180.76c-1.29,0-2.51-.58-3.32-1.59-2.55-3.16-4.89-6.55-6.94-10.08-.77-1.32-.78-2.95-.02-4.28,.76-1.32,2.17-2.14,3.7-2.14h66.67c2.36,0,4.27,1.91,4.27,4.27v9.55c0,2.36-1.91,4.27-4.27,4.27h-60.08Z"/>
        <path class="cls-5" d="M147.91,166.94v9.55h-60.09c-2.42-3.01-4.62-6.2-6.58-9.55h66.67Z"/>
        <path class="cls-5" d="M151.06,209.54c-2.36,0-4.27-1.91-4.27-4.27v-11.38c0-2.36,1.91-4.27,4.27-4.27h40.34c1.91,0,3.59,1.27,4.11,3.11,.52,1.84-.24,3.8-1.87,4.8-12.79,7.86-27.51,12.02-42.58,12.02Z"/>
        <path class="cls-5" d="M151.06,193.88h40.34c-11.74,7.22-25.55,11.38-40.34,11.38v-11.38Z"/>
        <path class="cls-5" d="M199.37,153.06c-1.45,0-2.81-.74-3.59-1.97-.79-1.23-.89-2.77-.28-4.09,1.53-3.32,2.47-6.85,2.79-10.51,.19-2.2,2.04-3.89,4.25-3.89h25.18c1.22,0,2.37,.52,3.18,1.43,.81,.91,1.19,2.12,1.06,3.32-.48,4.23-1.3,8.47-2.45,12.58-.51,1.85-2.19,3.13-4.11,3.13h-26.03Z"/>
        <path class="cls-5" d="M227.72,136.87c-.46,4.08-1.25,8.06-2.32,11.92h-26.03c1.7-3.68,2.8-7.7,3.17-11.92h25.18Z"/>
        <path class="cls-5" d="M186.47,168.09c-1.88,0-3.54-1.23-4.09-3.04-.54-1.8,.16-3.75,1.73-4.79,4.05-2.68,7.49-6.32,9.95-10.52,.77-1.31,2.17-2.11,3.68-2.11h26.73c1.37,0,2.65,.65,3.45,1.76,.8,1.1,1.03,2.53,.61,3.83-1.4,4.32-3.18,8.55-5.3,12.58-.74,1.41-2.19,2.29-3.78,2.29h-32.99Z"/>
        <path class="cls-5" d="M197.75,151.91h26.72c-1.34,4.14-3.02,8.12-5.01,11.92h-32.99c4.61-3.05,8.48-7.14,11.28-11.92Z"/>
        <rect class="cls-5" x="146.8" y="89.71" width="24.01" height="19.69" rx="4.27" ry="4.27"/>
        <rect class="cls-5" x="151.06" y="93.98" width="15.48" height="11.16"/>
        <rect class="cls-5" x="146.8" y="103.98" width="24.01" height="19" rx="4.27" ry="4.27"/>
        <rect class="cls-5" x="151.06" y="108.25" width="15.48" height="10.47"/>
        <rect class="cls-5" x="146.8" y="132.6" width="24.01" height="20.46" rx="4.27" ry="4.27"/>
        <rect class="cls-5" x="151.06" y="136.87" width="15.48" height="11.92"/>
        <path class="cls-5" d="M199.82,109.4c-1.71,0-3.26-1.02-3.93-2.6-1.55-3.66-3.77-6.97-6.58-9.84-1.2-1.23-1.55-3.06-.89-4.64,.67-1.58,2.22-2.61,3.93-2.61h27.92c1.62,0,3.11,.92,3.83,2.38,1.9,3.85,3.49,7.81,4.72,11.78,.4,1.3,.17,2.7-.64,3.8-.8,1.09-2.08,1.74-3.44,1.74h-24.94Z"/>
        <path class="cls-5" d="M199.82,105.14c-1.78-4.18-4.32-7.96-7.46-11.16h27.92c1.77,3.57,3.27,7.3,4.48,11.16h-24.94Z"/>
        <path class="cls-5" d="M151.06,80.86c-2.36,0-4.27-1.91-4.27-4.27v-11.16c0-2.36,1.91-4.27,4.27-4.27h45c.89,0,1.77,.28,2.49,.8,4.8,3.45,9.22,7.41,13.13,11.77,1.12,1.25,1.41,3.05,.72,4.59-.69,1.54-2.21,2.53-3.9,2.53h-57.44Z"/>
        <path class="cls-5" d="M196.06,65.43c4.54,3.27,8.72,7,12.44,11.16h-57.44v-11.16h45Z"/>
        <path class="cls-5" d="M202.67,122.99c-2.33,0-4.23-1.87-4.27-4.2-.05-3.16-.55-6.26-1.5-9.23-.41-1.3-.19-2.71,.62-3.81,.8-1.1,2.08-1.75,3.45-1.75h24.67c1.93,0,3.63,1.3,4.12,3.17,.94,3.56,1.66,7.27,2.11,11.05,.15,1.21-.23,2.43-1.04,3.34-.81,.91-1.97,1.44-3.19,1.44h-24.97Z"/>
        <path class="cls-5" d="M202.67,118.72c-.05-3.65-.64-7.16-1.7-10.47h24.67c.9,3.4,1.57,6.9,2,10.47h-24.97Z"/>
        <path class="cls-5" d="M202.68,138.02c-.28,0-.56-.03-.82-.08h-34.57c-.24,.06-.49,.08-.75,.08h-15.48c-2.36,0-4.27-1.91-4.27-4.27v-11.92c0-2.36,1.91-4.27,4.27-4.27h76.89c2.22,0,4.07,1.71,4.25,3.92,.19,2.41,.29,4.57,.29,6.61,0,1.81-.08,3.7-.24,5.96-.16,2.23-2.02,3.96-4.26,3.96h-25.32Z"/>
        <path class="cls-5" d="M166.54,133.69v.07h-15.48v-11.92h76.89c.17,2.07,.28,4.16,.28,6.27,0,1.9-.09,3.78-.23,5.65h-25.32s0-.05,0-.08h-36.14Z"/>
        <rect class="cls-5" x="146.8" y="147.64" width="24.01" height="20.46" rx="4.27" ry="4.27"/>
        <rect class="cls-5" x="151.06" y="151.91" width="15.48" height="11.92"/>
        <path class="cls-5" d="M188.89,95.13c-.96,0-1.89-.32-2.64-.92-4.54-3.58-9.81-5.81-15.44-6.55v3.2c0,2.36-1.91,4.27-4.27,4.27h-15.48c-2.36,0-4.27-1.91-4.27-4.27v-11.16c0-2.36,1.91-4.27,4.27-4.27h60.08c1.29,0,2.51,.58,3.32,1.59,2.98,3.69,5.64,7.65,7.92,11.77,.73,1.32,.71,2.93-.06,4.23-.77,1.3-2.16,2.1-3.67,2.1h-29.77Z"/>
        <path class="cls-5" d="M166.54,83.11v7.75h-15.48v-11.16h60.09c2.81,3.48,5.32,7.21,7.5,11.16h-29.77c-6.15-4.85-13.91-7.75-22.35-7.75Z"/>
        <path class="cls-5" d="M151.06,195.04c-2.36,0-4.27-1.91-4.27-4.27v-11.16c0-2.36,1.91-4.27,4.27-4.27h57.44c1.68,0,3.21,.99,3.9,2.53,.69,1.54,.4,3.34-.72,4.59-3.91,4.36-8.33,8.32-13.13,11.77-.73,.52-1.6,.8-2.49,.8h-45Z"/>
        <path class="cls-5" d="M208.51,179.61c-3.73,4.15-7.9,7.89-12.44,11.16h-45v-11.16h57.44Z"/>
        <path class="cls-5" d="M151.06,66.58c-2.36,0-4.27-1.91-4.27-4.27v-11.38c0-2.36,1.91-4.27,4.27-4.27,15.06,0,29.79,4.15,42.58,12.01,1.63,1,2.39,2.96,1.87,4.8-.52,1.84-2.2,3.11-4.11,3.11h-40.34Z"/>
        <path class="cls-5" d="M151.06,50.93c14.79,0,28.6,4.17,40.34,11.38h-40.34v-11.38Z"/>
        <path class="cls-5" d="M151.06,180.76c-2.36,0-4.27-1.91-4.27-4.27v-9.55c0-2.36,1.91-4.27,4.27-4.27h15.48c1.78,0,3.3,1.09,3.95,2.64,2.94-.36,5.8-1.13,8.53-2.3,.53-.22,1.1-.34,1.67-.34h37.04c1.53,0,2.94,.82,3.7,2.14,.76,1.32,.76,2.96-.01,4.27-2.06,3.53-4.4,6.93-6.95,10.08-.81,1-2.03,1.59-3.32,1.59h-60.09Z"/>
        <path class="cls-5" d="M217.73,166.94c-1.96,3.35-4.16,6.55-6.58,9.55h-60.09v-9.55h15.48v2.88c5.02,0,9.81-1.03,14.15-2.88h37.04Z"/>
      </g>
      <g>
        <rect class="cls-27" x="122.68" y="151.91" width="25.23" height="11.92"/>
        <path class="cls-36" d="M102.61,136.87h-31.36c.46,4.08,1.25,8.06,2.32,11.92h33.13c-1.87-3.72-3.27-7.71-4.09-11.92Z"/>
        <path class="cls-37" d="M101.77,128.1c0-2.13,.16-4.21,.43-6.27h-31.19c-.17,2.07-.27,4.15-.27,6.27,0,1.91,.09,3.79,.23,5.66h31.16c-.23-1.85-.35-3.74-.35-5.66Z"/>
        <path class="cls-18" d="M147.91,81.96v-2.26h-60.09c-2.81,3.48-5.33,7.21-7.5,11.16h40.36c7.63-5.59,17.04-8.9,27.23-8.9Z"/>
        <rect class="cls-17" x="107.61" y="121.76" width="40.3" height="12"/>
        <polygon class="cls-23" points="107.61 143.78 122.68 143.78 122.68 148.79 147.91 148.79 147.91 136.87 107.61 136.87 107.61 143.78"/>
        <path class="cls-2" d="M147.91,65.43h-45c-4.54,3.27-8.72,7-12.44,11.16h57.44v-11.16Z"/>
        <path class="cls-14" d="M106.25,108.25h-32.92c-.9,3.4-1.57,6.9-2,10.47h31.4c.76-3.67,1.95-7.18,3.52-10.47Z"/>
        <path class="cls-54" d="M116.86,93.98h-38.16c-1.77,3.57-3.27,7.3-4.48,11.16h33.68c2.4-4.17,5.42-7.94,8.96-11.16Z"/>
        <path class="cls-3" d="M147.91,179.61h-57.44c3.73,4.15,7.9,7.89,12.44,11.16h45v-11.16Z"/>
        <path class="cls-52" d="M147.91,50.93c-14.79,0-28.6,4.17-40.34,11.38h40.34v-11.38Z"/>
        <path class="cls-25" d="M108.42,151.91h-33.92c1.34,4.14,3.02,8.12,5.01,11.92h39.27c-4.1-3.35-7.61-7.37-10.36-11.92Z"/>
        <path class="cls-29" d="M147.91,205.27v-11.38h-40.34c11.74,7.22,25.55,11.38,40.34,11.38Z"/>
        <path class="cls-43" d="M147.91,166.94H81.24c1.96,3.35,4.16,6.55,6.58,9.55h60.09v-9.55Z"/>
        <path class="cls-35" d="M151.06,205.27c14.79,0,28.6-4.17,40.34-11.38h-40.34v11.38Z"/>
        <path class="cls-10" d="M199.37,148.79h26.03c1.07-3.86,1.86-7.84,2.32-11.92h-25.18c-.37,4.22-1.47,8.24-3.17,11.92Z"/>
        <path class="cls-41" d="M186.47,163.83h32.99c1.99-3.8,3.67-7.78,5.01-11.92h-26.72c-2.8,4.78-6.67,8.87-11.28,11.92Z"/>
        <rect class="cls-53" x="151.06" y="93.98" width="15.48" height="11.16"/>
        <rect class="cls-24" x="151.06" y="108.25" width="15.48" height="10.47"/>
        <rect class="cls-11" x="151.06" y="136.87" width="15.48" height="11.92"/>
        <path class="cls-13" d="M199.82,105.14h24.94c-1.2-3.86-2.71-7.58-4.48-11.16h-27.92c3.13,3.2,5.68,6.97,7.46,11.16Z"/>
        <path class="cls-22" d="M151.06,76.59h57.44c-3.73-4.15-7.9-7.89-12.44-11.16h-45v11.16Z"/>
        <path class="cls-48" d="M202.67,118.72h24.97c-.43-3.57-1.1-7.07-2-10.47h-24.67c1.06,3.31,1.65,6.82,1.7,10.47Z"/>
        <path class="cls-34" d="M151.06,133.76h15.48v-.07h36.14s0,.04,0,.07h25.32c.14-1.87,.23-3.75,.23-5.65,0-2.11-.11-4.2-.28-6.27h-76.89v11.92Z"/>
        <rect class="cls-20" x="151.06" y="151.91" width="15.48" height="11.92"/>
        <path class="cls-21" d="M151.06,90.86h15.48v-7.75c8.44,0,16.19,2.9,22.35,7.75h29.77c-2.18-3.94-4.69-7.67-7.5-11.16h-60.09v11.16Z"/>
        <path class="cls-28" d="M151.06,190.77h45c4.54-3.27,8.72-7,12.44-11.16h-57.44v11.16Z"/>
        <path class="cls-7" d="M151.06,50.93v11.38h40.34c-11.74-7.21-25.55-11.38-40.34-11.38Z"/>
        <path class="cls-46" d="M166.54,169.82v-2.88h-15.48v9.55h60.09c2.42-3.01,4.62-6.2,6.58-9.55h-37.04c-4.35,1.85-9.13,2.88-14.15,2.88Z"/>
      </g>
    </g>
  </g>
</svg>